<?xml version="1.0" standalone="no"?><!DOCTYPE svg PUBLIC "-//W3C//DTD SVG 1.1//EN" "http://www.w3.org/Graphics/SVG/1.1/DTD/svg11.dtd"><svg height="2903" node-id="1" sillyvg="true" template-height="2903" template-width="2903" version="1.1" viewBox="0 0 2903 2903" width="2903" xmlns="http://www.w3.org/2000/svg" xmlns:xlink="http://www.w3.org/1999/xlink"><defs node-id="21"></defs><g node-id="65"><path d="M 1451.34 2807.30 C 1268.29 2807.30 1090.71 2771.44 923.54 2700.73 C 843.19 2666.75 765.69 2624.69 693.20 2575.71 C 621.41 2527.21 553.89 2471.50 492.53 2410.14 C 431.18 2348.79 375.47 2281.27 326.96 2209.47 C 277.99 2136.99 235.93 2059.49 201.94 1979.14 C 131.24 1811.97 95.38 1634.39 95.38 1451.34 C 95.38 1268.29 131.24 1090.71 201.94 923.54 C 235.93 843.19 277.99 765.69 326.96 693.20 C 375.47 621.40 431.18 553.89 492.53 492.53 C 553.89 431.18 621.41 375.47 693.20 326.96 C 765.69 277.99 843.19 235.93 923.54 201.94 C 1090.71 131.23 1268.29 95.38 1451.34 95.38 C 1634.39 95.38 1811.97 131.23 1979.14 201.94 C 2059.49 235.93 2136.99 277.99 2209.48 326.96 C 2281.27 375.47 2348.79 431.18 2410.15 492.53 C 2471.50 553.89 2527.21 621.40 2575.72 693.20 C 2624.69 765.69 2666.75 843.19 2700.74 923.54 C 2771.45 1090.71 2807.30 1268.29 2807.30 1451.34 C 2807.30 1634.39 2771.45 1811.97 2700.74 1979.14 C 2666.75 2059.49 2624.69 2136.99 2575.72 2209.47 C 2527.21 2281.27 2471.51 2348.79 2410.15 2410.14 C 2348.79 2471.50 2281.27 2527.21 2209.48 2575.71 C 2136.99 2624.69 2059.49 2666.75 1979.14 2700.73 C 1811.97 2771.44 1634.39 2807.30 1451.34 2807.30 Z" fill="#c8c7ce" fill-rule="nonzero" group-id="1" node-id="25" stroke="none" target-height="2711.9148" target-width="2711.916" target-x="95.382" target-y="95.381"></path><path d="M 1451.34 105.38 C 2194.69 105.38 2797.30 707.99 2797.30 1451.34 C 2797.30 2194.69 2194.69 2797.30 1451.34 2797.30 C 707.99 2797.30 105.38 2194.69 105.38 1451.34 C 105.38 707.99 707.99 105.38 1451.34 105.38 M 1451.34 85.38 C 1358.67 85.38 1266.06 94.72 1176.07 113.13 C 1088.36 131.08 1002.09 157.86 919.64 192.74 C 838.70 226.97 760.63 269.35 687.61 318.68 C 615.28 367.54 547.27 423.65 485.46 485.46 C 423.65 547.27 367.54 615.28 318.68 687.61 C 269.34 760.63 226.97 838.70 192.73 919.64 C 157.86 1002.09 131.08 1088.36 113.13 1176.07 C 94.72 1266.06 85.38 1358.67 85.38 1451.34 C 85.38 1544.01 94.72 1636.62 113.13 1726.61 C 131.08 1814.32 157.86 1900.60 192.73 1983.04 C 226.97 2063.98 269.34 2142.05 318.68 2215.07 C 367.54 2287.40 423.65 2355.41 485.46 2417.22 C 547.27 2479.02 615.28 2535.14 687.61 2584.00 C 760.63 2633.34 838.70 2675.71 919.64 2709.94 C 1002.09 2744.81 1088.36 2771.60 1176.07 2789.55 C 1266.06 2807.96 1358.67 2817.30 1451.34 2817.30 C 1544.01 2817.30 1636.62 2807.96 1726.61 2789.55 C 1814.32 2771.60 1900.60 2744.82 1983.04 2709.94 C 2063.98 2675.71 2142.05 2633.34 2215.07 2584.00 C 2287.40 2535.14 2355.41 2479.02 2417.22 2417.22 C 2479.03 2355.41 2535.14 2287.40 2584.00 2215.07 C 2633.34 2142.05 2675.71 2063.98 2709.95 1983.04 C 2744.82 1900.59 2771.60 1814.32 2789.55 1726.61 C 2807.96 1636.62 2817.30 1544.00 2817.30 1451.34 C 2817.30 1358.67 2807.96 1266.06 2789.55 1176.07 C 2771.60 1088.36 2744.82 1002.09 2709.95 919.64 C 2675.71 838.70 2633.34 760.63 2584.00 687.61 C 2535.14 615.28 2479.03 547.27 2417.22 485.46 C 2355.41 423.65 2287.40 367.54 2215.07 318.68 C 2142.05 269.34 2063.98 226.97 1983.04 192.73 C 1900.60 157.86 1814.32 131.08 1726.61 113.13 C 1636.62 94.72 1544.01 85.38 1451.34 85.38 L 1451.34 85.38 Z" fill="#8d5966" fill-rule="nonzero" group-id="1" node-id="27" stroke="none" target-height="2731.9128" target-width="2731.915" target-x="85.382" target-y="85.383"></path></g><g node-id="66"><path d="M 1451.34 2655.67 C 1288.78 2655.67 1131.05 2623.82 982.54 2561.01 C 911.17 2530.82 842.34 2493.46 777.95 2449.96 C 714.19 2406.89 654.24 2357.42 599.75 2302.93 C 545.26 2248.45 495.80 2188.49 452.72 2124.73 C 409.22 2060.34 371.86 1991.51 341.67 1920.14 C 278.86 1771.63 247.01 1613.90 247.01 1451.34 C 247.01 1288.78 278.86 1131.06 341.67 982.55 C 371.86 911.17 409.22 842.34 452.72 777.95 C 495.80 714.19 545.26 654.24 599.75 599.75 C 654.23 545.26 714.19 495.80 777.95 452.72 C 842.34 409.22 911.17 371.86 982.54 341.67 C 1131.05 278.86 1288.78 247.01 1451.34 247.01 C 1613.90 247.01 1771.63 278.86 1920.14 341.67 C 1991.51 371.86 2060.34 409.22 2124.73 452.72 C 2188.49 495.80 2248.45 545.26 2302.93 599.75 C 2357.42 654.24 2406.89 714.19 2449.96 777.95 C 2493.46 842.34 2530.82 911.17 2561.01 982.55 C 2623.82 1131.06 2655.67 1288.78 2655.67 1451.34 C 2655.67 1613.90 2623.82 1771.63 2561.01 1920.14 C 2530.82 1991.51 2493.46 2060.34 2449.96 2124.73 C 2406.89 2188.49 2357.42 2248.45 2302.93 2302.93 C 2248.45 2357.42 2188.49 2406.89 2124.73 2449.96 C 2060.34 2493.46 1991.51 2530.82 1920.14 2561.01 C 1771.63 2623.82 1613.90 2655.67 1451.34 2655.67 Z" fill="#e4e4ec" fill-rule="nonzero" group-id="2" node-id="32" stroke="none" target-height="2408.661" target-width="2408.661" target-x="247.008" target-y="247.009"></path><path d="M 1451.34 297.01 C 2088.86 297.01 2605.67 813.82 2605.67 1451.34 C 2605.67 2088.86 2088.86 2605.67 1451.34 2605.67 C 813.82 2605.67 297.01 2088.86 297.01 1451.34 C 297.01 813.82 813.82 297.01 1451.34 297.01 M 1451.34 197.01 C 1366.30 197.01 1281.28 205.58 1198.65 222.49 C 1118.07 238.98 1038.81 263.58 963.07 295.62 C 888.72 327.07 817.02 365.98 749.96 411.29 C 683.56 456.14 621.13 507.66 564.39 564.39 C 507.66 621.13 456.14 683.56 411.29 749.96 C 365.98 817.02 327.07 888.72 295.62 963.07 C 263.58 1038.81 238.98 1118.07 222.49 1198.65 C 205.58 1281.29 197.01 1366.30 197.01 1451.34 C 197.01 1536.38 205.58 1621.40 222.49 1704.03 C 238.98 1784.61 263.58 1863.87 295.62 1939.61 C 327.07 2013.96 365.98 2085.66 411.29 2152.72 C 456.14 2219.12 507.66 2281.55 564.39 2338.29 C 621.13 2395.02 683.56 2446.53 749.96 2491.39 C 817.02 2536.70 888.72 2575.61 963.07 2607.06 C 1038.81 2639.09 1118.07 2663.70 1198.65 2680.19 C 1281.29 2697.09 1366.30 2705.67 1451.34 2705.67 C 1536.38 2705.67 1621.40 2697.09 1704.03 2680.19 C 1784.61 2663.70 1863.87 2639.09 1939.61 2607.06 C 2013.96 2575.61 2085.66 2536.70 2152.72 2491.39 C 2219.12 2446.53 2281.55 2395.02 2338.29 2338.29 C 2395.02 2281.55 2446.54 2219.12 2491.39 2152.72 C 2536.70 2085.66 2575.61 2013.96 2607.06 1939.61 C 2639.09 1863.87 2663.70 1784.61 2680.19 1704.03 C 2697.10 1621.40 2705.67 1536.38 2705.67 1451.34 C 2705.67 1366.30 2697.10 1281.29 2680.19 1198.65 C 2663.70 1118.07 2639.09 1038.81 2607.06 963.07 C 2575.61 888.72 2536.70 817.02 2491.39 749.96 C 2446.54 683.56 2395.02 621.13 2338.29 564.39 C 2281.55 507.66 2219.12 456.14 2152.72 411.29 C 2085.66 365.98 2013.96 327.07 1939.62 295.62 C 1863.87 263.58 1784.61 238.98 1704.03 222.49 C 1621.40 205.58 1536.38 197.01 1451.34 197.01 L 1451.34 197.01 Z" fill="#7d7f88" fill-rule="nonzero" group-id="2" node-id="34" stroke="none" target-height="2508.659" target-width="2508.661" target-x="197.009" target-y="197.009"></path></g><g node-id="67"><path d="M 246.61 1453.51 L 1451.32 248.79 L 2656.03 1453.51 L 1451.32 2658.22 Z" fill="#4881ab" fill-rule="nonzero" group-id="3" node-id="39" stroke="none" target-height="2409.4263" target-width="2409.4263" target-x="246.60632" target-y="248.79431"></path></g><path d="M 2387.96 1839.30 L 2775.92 1451.34 L 2387.96 1063.38 L 2387.96 514.72 L 1839.30 514.72 L 1451.34 126.76 L 1063.38 514.72 L 514.72 514.72 L 514.72 1063.38 L 126.76 1451.34 L 514.72 1839.30 L 514.72 2387.96 L 1063.38 2387.96 L 1451.34 2775.92 L 1839.30 2387.96 L 2387.96 2387.96 Z" fill="none" node-id="42" stroke="#4881ab" stroke-linecap="butt" stroke-width="30" target-height="2649.163" target-width="2649.1628" target-x="126.758" target-y="126.759"></path><path d="M 2008.66 749.24 C 1780.95 689.17 1707.23 943.64 1686.14 1052.80 C 1614.02 1025.33 1534.63 1010.09 1451.16 1010.09 C 1367.70 1010.09 1288.13 1025.33 1216.18 1052.80 C 1195.27 943.64 1121.38 688.99 893.67 749.24 C 618.64 821.90 611.02 1225.22 903.24 1332.08 C 873.29 1394.81 856.81 1463.74 856.81 1536.22 C 856.81 1601.44 870.27 1663.99 894.73 1721.58 C 861.41 1760.39 842.98 1803.28 842.98 1848.46 C 842.98 2021.95 1115.17 2162.48 1451.16 2162.48 C 1787.15 2162.48 2059.34 2021.95 2059.34 1848.46 C 2059.34 1803.28 2040.91 1760.39 2007.59 1721.58 C 2032.05 1663.99 2045.52 1601.44 2045.52 1536.22 C 2045.52 1463.92 2029.04 1394.81 1999.09 1332.08 C 2291.13 1225.22 2283.68 821.90 2008.66 749.24 Z" fill="#bfb8b2" fill-rule="nonzero" group-id="4" node-id="46" stroke="none" target-height="1473.4851" target-width="1680.1079" target-x="611.02" target-y="688.991"></path><path d="M 1451.16 2099.74 C 1135.91 2099.74 876.65 1975.88 846.00 1817.10 C 844.05 1827.38 842.98 1837.83 842.98 1848.46 C 842.98 2021.95 1115.17 2162.48 1451.16 2162.48 C 1787.15 2162.48 2059.34 2021.95 2059.34 1848.46 C 2059.34 1837.83 2058.28 1827.38 2056.33 1817.10 C 2025.67 1975.88 1766.41 2099.74 1451.16 2099.74 Z" fill="#a8a4a1" fill-rule="nonzero" node-id="49" stroke="none" target-height="345.37805" target-width="1216.3551" target-x="842.984" target-y="1817.098"></path><path d="M 1451.16 2188.35 C 1284.41 2188.35 1127.40 2154.68 1008.85 2093.36 C 884.98 2029.39 816.76 1942.38 816.76 1848.46 C 816.76 1802.57 832.88 1758.62 864.78 1717.15 C 842.10 1659.03 830.58 1598.25 830.58 1536.05 C 830.58 1470.48 843.34 1406.51 868.50 1345.73 C 803.11 1316.49 749.60 1270.77 712.74 1212.29 C 675.17 1152.75 656.38 1080.98 659.75 1010.27 C 662.94 944.88 684.21 883.92 721.42 834.13 C 761.65 780.08 818.88 742.15 886.93 724.26 C 911.92 717.70 936.37 714.33 959.59 714.33 C 1006.37 714.33 1049.25 727.80 1087.00 754.21 C 1118.36 776.18 1146.19 807.19 1169.93 846.53 C 1203.96 902.88 1224.16 966.85 1236.03 1018.25 C 1304.79 995.56 1377.09 984.04 1451.34 984.04 C 1525.59 984.04 1597.89 995.56 1666.65 1018.25 C 1678.52 967.03 1698.72 902.88 1732.75 846.53 C 1756.49 807.19 1784.31 776.00 1815.68 754.21 C 1853.42 727.62 1896.31 714.33 1943.09 714.33 C 1966.31 714.33 1990.76 717.70 2015.75 724.26 C 2083.80 742.15 2141.03 780.25 2181.26 834.13 C 2218.47 883.92 2239.74 944.88 2242.93 1010.27 C 2246.29 1080.98 2227.51 1152.75 2189.94 1212.29 C 2153.08 1270.59 2099.74 1316.31 2034.18 1345.73 C 2059.34 1406.51 2072.10 1470.48 2072.10 1536.05 C 2072.10 1598.07 2060.58 1659.03 2037.90 1717.15 C 2069.80 1758.44 2085.92 1802.57 2085.92 1848.46 C 2085.92 1942.38 2017.70 2029.22 1893.83 2093.36 C 1774.92 2154.68 1617.74 2188.35 1451.16 2188.35 Z M 959.41 765.90 C 940.80 765.90 921.13 768.73 900.58 774.05 C 768.74 808.78 716.99 920.25 712.56 1012.75 C 707.60 1113.40 757.04 1251.10 912.45 1307.98 L 939.21 1317.72 L 927.16 1342.89 C 898.10 1404.20 883.21 1469.24 883.21 1536.22 C 883.21 1596.65 895.26 1655.66 919.18 1711.66 L 925.39 1726.01 L 915.11 1738.06 C 884.81 1773.33 869.57 1810.54 869.57 1848.46 C 869.57 1922.36 927.87 1993.07 1033.66 2047.82 C 1144.77 2105.24 1293.10 2136.78 1451.16 2136.78 C 1609.23 2136.78 1757.73 2105.24 1868.67 2047.82 C 1974.46 1993.24 2032.76 1922.36 2032.76 1848.46 C 2032.76 1810.54 2017.34 1773.33 1987.22 1738.06 L 1976.94 1726.01 L 1983.14 1711.66 C 2007.07 1655.48 2019.12 1596.47 2019.12 1536.22 C 2019.12 1469.24 2004.41 1404.20 1975.17 1342.89 L 1963.12 1317.72 L 1989.88 1307.98 C 2145.29 1251.10 2194.73 1113.40 2189.77 1012.75 C 2185.34 920.25 2133.42 808.78 2001.75 774.05 C 1981.19 768.56 1961.35 765.90 1942.92 765.90 C 1785.20 765.90 1729.03 969.87 1712.19 1057.59 L 1706.34 1088.24 L 1676.57 1076.90 C 1605.34 1049.61 1529.49 1035.96 1451.16 1035.96 C 1372.84 1035.96 1296.99 1049.79 1225.76 1076.90 L 1195.98 1088.24 L 1190.14 1057.59 C 1173.30 969.87 1117.12 765.90 959.41 765.90 Z" fill="#20455b" fill-rule="nonzero" node-id="51" stroke="none" target-height="1474.0149" target-width="1589.9099" target-x="656.384" target-y="714.333"></path><path d="M 1156.11 1892.41 C 1156.11 1998.89 1288.21 2085.21 1451.16 2085.21 C 1614.12 2085.21 1746.21 1998.89 1746.21 1892.41 L 1746.21 1892.41 C 1746.21 1785.93 1614.12 1699.61 1451.16 1699.61 C 1288.21 1699.61 1156.11 1785.93 1156.11 1892.41 L 1156.11 1892.41 Z" fill="#e0dcda" fill-rule="nonzero" node-id="53" stroke="none" target-height="385.60486" target-width="590.103" target-x="1156.111" target-y="1699.608"></path><path d="M 1482.35 1999.44 L 1419.80 1999.44 C 1407.75 1999.44 1398.00 1989.88 1398.00 1978.18 L 1398.00 1910.13 L 1449.74 1882.66 L 1504.15 1910.13 L 1504.15 1978.18 C 1504.15 1989.88 1494.40 1999.44 1482.35 1999.44 Z" fill="#ffffff" fill-rule="nonzero" node-id="55" stroke="none" target-height="116.781006" target-width="106.14795" target-x="1398" target-y="1882.663"></path><path d="M 1847.05 1708.11 L 1843.32 1691.28 L 1547.74 1753.66 C 1547.21 1751.88 1546.50 1750.11 1545.79 1748.52 C 1619.86 1717.86 1828.97 1634.22 1967.90 1609.59 L 1964.71 1592.75 C 1822.41 1618.09 1608.17 1704.04 1536.05 1733.98 C 1518.86 1715.38 1487.31 1702.80 1451.16 1702.80 C 1415.01 1702.80 1383.47 1715.38 1366.28 1733.98 C 1294.16 1704.04 1079.91 1618.09 937.61 1592.75 L 934.42 1609.59 C 1073.18 1634.40 1282.28 1717.86 1356.53 1748.52 C 1355.83 1750.29 1355.12 1751.88 1354.59 1753.66 L 1059.00 1691.28 L 1055.28 1708.11 L 1353.17 1771.02 C 1353.70 1775.81 1355.12 1780.24 1357.24 1784.67 L 1095.68 1784.67 L 1095.68 1801.86 L 1369.82 1801.86 C 1385.06 1816.21 1409.34 1826.13 1437.16 1828.79 L 1437.16 1852.54 C 1437.16 1855.37 1437.34 1858.21 1437.69 1861.05 C 1435.75 1872.21 1430.08 1882.31 1421.39 1889.93 C 1410.40 1899.50 1396.23 1904.11 1381.52 1902.51 C 1338.46 1898.08 1273.60 1886.03 1208.57 1853.42 L 1196.52 1876.29 C 1265.09 1910.66 1333.50 1923.42 1378.86 1928.03 C 1381.52 1928.38 1384.36 1928.38 1387.01 1928.38 C 1406.15 1928.38 1424.93 1921.47 1439.29 1908.89 C 1443.90 1904.81 1447.80 1900.38 1451.34 1895.60 C 1454.71 1900.38 1458.78 1904.99 1463.39 1908.89 C 1477.74 1921.47 1496.53 1928.38 1515.66 1928.38 C 1518.32 1928.38 1520.98 1928.21 1523.82 1928.03 C 1569.18 1923.42 1637.58 1910.66 1706.16 1876.29 L 1694.11 1853.42 C 1629.08 1886.03 1564.22 1898.08 1521.16 1902.51 C 1506.45 1903.93 1492.27 1899.50 1481.29 1889.93 C 1472.60 1882.31 1466.93 1872.03 1464.98 1861.05 C 1465.34 1858.21 1465.52 1855.37 1465.52 1852.54 L 1465.52 1828.79 C 1493.51 1826.31 1517.61 1816.21 1532.85 1801.86 L 1806.99 1801.86 L 1806.99 1784.67 L 1545.26 1784.67 C 1547.39 1780.24 1548.63 1775.81 1549.34 1771.02 L 1847.05 1708.11 Z" fill="#5b4e45" fill-rule="nonzero" node-id="57" stroke="none" target-height="335.63208" target-width="1033.4751" target-x="934.425" target-y="1592.751"></path><path d="M 1201.12 1457.19 C 1201.12 1488.41 1227.14 1513.72 1259.25 1513.72 C 1291.35 1513.72 1317.37 1488.41 1317.37 1457.19 C 1317.37 1425.97 1291.35 1400.66 1259.25 1400.66 C 1227.14 1400.66 1201.12 1425.97 1201.12 1457.19 Z" fill="#5b4e45" fill-rule="nonzero" node-id="59" stroke="none" target-height="113.05908" target-width="116.24902" target-x="1201.122" target-y="1400.658"></path><path d="M 1584.95 1457.19 C 1584.93 1488.41 1610.93 1513.74 1643.03 1513.77 C 1675.13 1513.79 1701.18 1488.50 1701.20 1457.28 C 1701.20 1457.25 1701.20 1457.22 1701.20 1457.19 C 1701.23 1425.97 1675.23 1400.64 1643.13 1400.61 C 1611.03 1400.59 1584.98 1425.87 1584.95 1457.09 C 1584.95 1457.13 1584.95 1457.16 1584.95 1457.19 Z" fill="#5b4e45" fill-rule="nonzero" node-id="61" stroke="none" target-height="113.203" target-width="116.301025" target-x="1584.928" target-y="1400.587"></path><path d="M 801.70 857.69 C 801.70 857.69 671.62 1002.65 791.77 1199.53 C 843.16 1283.70 947.36 1297.52 947.36 1297.52 C 947.36 1297.52 1004.60 1196.16 1060.60 1154.87 C 1060.60 1154.87 985.82 895.44 801.70 857.69 Z M 2098.86 857.69 C 1914.56 895.44 1839.78 1154.87 1839.78 1154.87 C 1895.95 1196.16 1953.02 1297.52 1953.02 1297.52 C 1953.02 1297.52 2057.21 1283.88 2108.60 1199.53 C 2228.93 1002.47 2098.86 857.69 2098.86 857.69 Z" fill="#969290" fill-rule="nonzero" node-id="63" stroke="none" target-height="439.82996" target-width="1557.303" target-x="671.625" target-y="857.693"></path></svg>