<?xml version="1.0" standalone="no"?><!DOCTYPE svg PUBLIC "-//W3C//DTD SVG 1.1//EN" "http://www.w3.org/Graphics/SVG/1.1/DTD/svg11.dtd"><svg height="2903" node-id="1" sillyvg="true" template-height="2903" template-width="2903" version="1.1" viewBox="0 0 2903 2903" width="2903" xmlns="http://www.w3.org/2000/svg" xmlns:xlink="http://www.w3.org/1999/xlink"><defs node-id="26"></defs><g node-id="82"><path d="M 1451.34 2807.30 C 1268.29 2807.30 1090.71 2771.44 923.54 2700.73 C 843.19 2666.75 765.69 2624.69 693.20 2575.71 C 621.41 2527.21 553.89 2471.50 492.53 2410.15 C 431.18 2348.79 375.47 2281.27 326.96 2209.47 C 277.99 2136.99 235.93 2059.49 201.94 1979.14 C 131.24 1811.97 95.38 1634.39 95.38 1451.34 C 95.38 1268.29 131.24 1090.71 201.94 923.54 C 235.93 843.19 277.99 765.69 326.96 693.20 C 375.47 621.40 431.18 553.89 492.53 492.53 C 553.89 431.17 621.41 375.47 693.20 326.96 C 765.69 277.99 843.19 235.93 923.54 201.94 C 1090.71 131.23 1268.29 95.38 1451.34 95.38 C 1634.39 95.38 1811.97 131.23 1979.14 201.94 C 2059.49 235.93 2136.99 277.99 2209.48 326.96 C 2281.27 375.47 2348.79 431.18 2410.15 492.53 C 2471.51 553.89 2527.21 621.40 2575.72 693.20 C 2624.69 765.69 2666.75 843.19 2700.74 923.54 C 2771.44 1090.71 2807.30 1268.29 2807.30 1451.34 C 2807.30 1634.39 2771.44 1811.97 2700.74 1979.14 C 2666.75 2059.49 2624.69 2136.99 2575.72 2209.47 C 2527.21 2281.27 2471.50 2348.79 2410.15 2410.15 C 2348.79 2471.50 2281.27 2527.21 2209.48 2575.71 C 2136.99 2624.69 2059.49 2666.75 1979.14 2700.74 C 1811.97 2771.44 1634.39 2807.30 1451.34 2807.30 Z" fill="#421b16" fill-rule="nonzero" group-id="1" node-id="30" stroke="none" target-height="2711.916" target-width="2711.915" target-x="95.382" target-y="95.381"></path><path d="M 1451.34 105.38 C 2194.69 105.38 2797.30 707.99 2797.30 1451.34 C 2797.30 2194.69 2194.69 2797.30 1451.34 2797.30 C 707.99 2797.30 105.38 2194.69 105.38 1451.34 C 105.38 707.99 707.99 105.38 1451.34 105.38 M 1451.34 85.38 C 1358.67 85.38 1266.06 94.72 1176.07 113.13 C 1088.36 131.08 1002.09 157.86 919.64 192.74 C 838.70 226.97 760.63 269.35 687.61 318.68 C 615.28 367.54 547.27 423.65 485.46 485.46 C 423.65 547.27 367.54 615.28 318.68 687.61 C 269.35 760.63 226.97 838.70 192.74 919.64 C 157.87 1002.09 131.08 1088.36 113.13 1176.07 C 94.72 1266.06 85.38 1358.68 85.38 1451.34 C 85.38 1544.01 94.72 1636.62 113.13 1726.61 C 131.08 1814.32 157.86 1900.60 192.74 1983.04 C 226.97 2063.98 269.35 2142.05 318.68 2215.07 C 367.54 2287.40 423.65 2355.41 485.46 2417.22 C 547.27 2479.03 615.28 2535.14 687.61 2584.00 C 760.63 2633.34 838.70 2675.71 919.64 2709.95 C 1002.09 2744.82 1088.36 2771.60 1176.07 2789.55 C 1266.06 2807.96 1358.67 2817.30 1451.34 2817.30 C 1544.01 2817.30 1636.62 2807.96 1726.61 2789.55 C 1814.32 2771.60 1900.60 2744.82 1983.04 2709.95 C 2063.98 2675.71 2142.05 2633.34 2215.07 2584.00 C 2287.40 2535.14 2355.41 2479.03 2417.22 2417.22 C 2479.03 2355.41 2535.14 2287.40 2584.00 2215.07 C 2633.34 2142.05 2675.71 2063.98 2709.95 1983.04 C 2744.82 1900.60 2771.60 1814.32 2789.55 1726.61 C 2807.96 1636.62 2817.30 1544.01 2817.30 1451.34 C 2817.30 1358.68 2807.96 1266.06 2789.55 1176.07 C 2771.60 1088.36 2744.82 1002.09 2709.95 919.64 C 2675.71 838.70 2633.34 760.63 2584.00 687.61 C 2535.14 615.28 2479.03 547.27 2417.22 485.46 C 2355.41 423.65 2287.40 367.54 2215.07 318.68 C 2142.05 269.35 2063.98 226.97 1983.04 192.74 C 1900.60 157.87 1814.32 131.08 1726.61 113.13 C 1636.62 94.72 1544.01 85.38 1451.34 85.38 L 1451.34 85.38 Z" fill="#6a2524" fill-rule="nonzero" group-id="1" node-id="32" stroke="none" target-height="2731.916" target-width="2731.915" target-x="85.383" target-y="85.383"></path></g><g node-id="83"><path d="M 1451.34 2655.67 C 1288.78 2655.67 1131.05 2623.82 982.54 2561.01 C 911.17 2530.82 842.34 2493.46 777.95 2449.96 C 714.19 2406.89 654.24 2357.42 599.75 2302.93 C 545.26 2248.45 495.80 2188.49 452.72 2124.73 C 409.22 2060.34 371.86 1991.51 341.67 1920.14 C 278.86 1771.63 247.01 1613.91 247.01 1451.34 C 247.01 1288.78 278.86 1131.06 341.67 982.55 C 371.86 911.17 409.22 842.34 452.72 777.95 C 495.80 714.19 545.26 654.24 599.75 599.75 C 654.24 545.26 714.19 495.80 777.95 452.72 C 842.34 409.22 911.17 371.86 982.54 341.67 C 1131.05 278.86 1288.78 247.01 1451.34 247.01 C 1613.90 247.01 1771.63 278.86 1920.14 341.67 C 1991.51 371.86 2060.34 409.22 2124.73 452.72 C 2188.49 495.80 2248.45 545.26 2302.93 599.75 C 2357.42 654.24 2406.89 714.19 2449.96 777.95 C 2493.46 842.34 2530.82 911.17 2561.01 982.55 C 2623.82 1131.06 2655.67 1288.78 2655.67 1451.34 C 2655.67 1613.91 2623.82 1771.63 2561.01 1920.14 C 2530.82 1991.51 2493.46 2060.34 2449.96 2124.73 C 2406.89 2188.49 2357.42 2248.45 2302.93 2302.93 C 2248.45 2357.42 2188.49 2406.89 2124.73 2449.96 C 2060.34 2493.46 1991.51 2530.82 1920.14 2561.01 C 1771.63 2623.82 1613.90 2655.67 1451.34 2655.67 Z" fill="#f1eed8" fill-rule="nonzero" group-id="2" node-id="37" stroke="none" target-height="2408.66" target-width="2408.66" target-x="247.009" target-y="247.01"></path><g node-id="88"><path d="M 1451.34 297.01 C 2088.86 297.01 2605.67 813.82 2605.67 1451.34 C 2605.67 2088.86 2088.86 2605.67 1451.34 2605.67 C 813.82 2605.67 297.01 2088.86 297.01 1451.34 C 297.01 813.82 813.82 297.01 1451.34 297.01 M 1451.34 197.01 C 1366.30 197.01 1281.29 205.58 1198.65 222.49 C 1118.07 238.98 1038.81 263.59 963.07 295.62 C 888.72 327.07 817.02 365.98 749.96 411.29 C 683.57 456.15 621.13 507.66 564.39 564.39 C 507.66 621.13 456.15 683.57 411.29 749.96 C 365.98 817.02 327.07 888.72 295.62 963.07 C 263.59 1038.81 238.98 1118.08 222.49 1198.66 C 205.58 1281.29 197.01 1366.30 197.01 1451.34 C 197.01 1536.38 205.58 1621.40 222.49 1704.03 C 238.98 1784.61 263.59 1863.87 295.62 1939.62 C 327.07 2013.96 365.98 2085.66 411.29 2152.72 C 456.15 2219.12 507.66 2281.55 564.39 2338.29 C 621.13 2395.02 683.57 2446.53 749.96 2491.39 C 817.02 2536.70 888.72 2575.61 963.07 2607.06 C 1038.81 2639.09 1118.07 2663.70 1198.65 2680.19 C 1281.29 2697.09 1366.30 2705.67 1451.34 2705.67 C 1536.38 2705.67 1621.40 2697.09 1704.03 2680.19 C 1784.61 2663.70 1863.87 2639.09 1939.62 2607.06 C 2013.96 2575.61 2085.66 2536.70 2152.72 2491.39 C 2219.12 2446.53 2281.55 2395.02 2338.29 2338.29 C 2395.02 2281.55 2446.53 2219.12 2491.39 2152.72 C 2536.70 2085.66 2575.61 2013.96 2607.06 1939.61 C 2639.09 1863.87 2663.70 1784.61 2680.19 1704.03 C 2697.09 1621.40 2705.67 1536.38 2705.67 1451.34 C 2705.67 1366.30 2697.09 1281.29 2680.19 1198.65 C 2663.70 1118.07 2639.09 1038.81 2607.06 963.07 C 2575.61 888.72 2536.70 817.02 2491.39 749.96 C 2446.53 683.57 2395.02 621.13 2338.29 564.39 C 2281.55 507.66 2219.12 456.14 2152.72 411.29 C 2085.66 365.98 2013.96 327.07 1939.62 295.62 C 1863.87 263.58 1784.61 238.98 1704.03 222.49 C 1621.40 205.58 1536.38 197.01 1451.34 197.01 L 1451.34 197.01 Z" fill="#e6dca7" fill-rule="nonzero" group-id="2,7" node-id="41" stroke="none" target-height="2508.658" target-width="2508.658" target-x="197.01" target-y="197.01"></path></g></g><g node-id="84"><path d="M 1451.34 246.61 L 2656.05 1451.32 L 1451.34 2656.03 L 246.63 1451.32 Z" fill="#75b9ab" fill-rule="nonzero" group-id="3" node-id="47" stroke="none" target-height="2409.4277" target-width="2409.4275" target-x="246.62622" target-y="246.6073"></path></g><g node-id="85"><path d="M 1451.34 2797.14 L 1057.17 2402.96 L 499.72 2402.96 L 499.72 1845.51 L 105.55 1451.34 L 499.72 1057.17 L 499.72 499.72 L 1057.17 499.72 L 1451.34 105.55 L 1845.51 499.72 L 2402.96 499.72 L 2402.96 1057.16 L 2797.13 1451.34 L 2402.96 1845.51 L 2402.96 2402.96 L 1845.51 2402.96 L 1451.34 2797.14 Z M 529.72 2372.96 L 1069.59 2372.96 L 1451.34 2754.71 L 1833.09 2372.96 L 2372.96 2372.96 L 2372.96 1833.09 L 2754.71 1451.34 L 2372.96 1069.59 L 2372.96 529.72 L 1833.09 529.72 L 1451.34 147.97 L 1069.59 529.72 L 529.72 529.72 L 529.72 1069.59 L 147.97 1451.34 L 529.72 1833.09 L 529.72 2372.96 Z" fill="#75b9ab" fill-rule="nonzero" group-id="4" node-id="52" stroke="none" target-height="2691.59" target-width="2691.5881" target-x="105.545" target-y="105.545"></path></g><g node-id="86"><path d="M 1451.32 2213.35 C 1411.81 2213.35 1373.48 2203.19 1343.39 2184.75 C 1316.89 2168.50 1298.44 2147.16 1290.31 2123.66 C 1274.08 2114.66 1259.72 2102.63 1248.33 2088.41 C 1237.56 2074.96 1229.40 2059.70 1223.94 2042.85 L 1179.63 2053.92 L 1171.11 2034.69 C 1140.13 1964.76 1059.40 1954.32 1014.04 1954.32 C 997.68 1954.32 986.86 1955.74 986.76 1955.75 L 958.44 1959.54 L 958.40 1930.98 L 958.40 1907.50 L 850.59 1979.37 L 818.02 1979.38 L 818.01 1825.28 L 776.88 1838.99 L 747.82 1838.99 L 747.82 1813.99 C 747.82 1813.15 747.82 1812.30 747.83 1811.43 C 747.83 1811.43 747.85 1809.41 747.86 1808.80 L 747.90 1806.20 L 747.96 1803.39 C 747.97 1803.01 748.04 1800.61 748.04 1800.61 L 748.13 1797.82 L 748.25 1794.86 L 748.38 1791.94 L 748.52 1789.00 L 748.68 1786.03 C 748.72 1785.31 748.88 1782.69 748.88 1782.69 L 749.06 1779.91 L 749.26 1776.95 C 749.33 1775.95 749.56 1772.77 749.56 1772.77 C 752.36 1735.71 762.67 1639.18 798.91 1517.70 C 833.76 1400.85 881.44 1297.17 940.69 1209.39 C 933.63 1101.79 933.13 996.25 939.30 911.30 C 946.94 806.02 963.55 740.82 990.09 711.96 C 1003.50 697.37 1020.94 689.33 1039.18 689.33 C 1056.20 689.33 1076.27 698.53 1102.34 718.28 C 1121.64 732.91 1144.90 753.88 1171.47 780.62 C 1209.30 818.70 1253.84 868.30 1303.99 928.20 C 1351.68 913.71 1401.16 906.38 1451.34 906.38 C 1501.52 906.38 1551.01 913.71 1598.68 928.20 C 1648.84 868.30 1693.37 818.70 1731.20 780.62 C 1757.77 753.88 1781.03 732.91 1800.33 718.28 C 1826.41 698.53 1846.48 689.33 1863.49 689.33 C 1881.73 689.33 1899.16 697.37 1912.58 711.96 C 1939.12 740.81 1955.73 806.02 1963.38 911.30 C 1969.54 996.25 1969.04 1101.80 1961.99 1209.39 C 2043.81 1330.70 2089.91 1463.81 2114.29 1554.90 C 2144.20 1666.66 2154.85 1762.02 2154.85 1813.99 L 2154.85 1847.84 L 2122.22 1837.80 L 2084.66 1825.28 L 2084.66 2001.09 L 1944.28 1907.50 L 1944.28 1959.66 L 1915.87 1955.74 C 1915.81 1955.74 1905.00 1954.32 1888.64 1954.32 C 1843.28 1954.32 1762.55 1964.76 1731.57 2034.69 L 1723.71 2052.41 L 1678.09 2044.81 C 1672.40 2061.62 1663.98 2076.80 1652.95 2090.13 C 1641.71 2103.71 1627.69 2115.23 1611.94 2123.90 C 1603.78 2147.32 1585.40 2168.60 1559.06 2184.80 C 1529.10 2203.21 1490.95 2213.35 1451.64 2213.35 L 1451.32 2213.35 Z" fill="#464655" fill-rule="nonzero" group-id="5" node-id="57" stroke="none" target-height="1524.0178" target-width="1407.033" target-x="747.821" target-y="689.33"></path><path d="M 1863.49 714.33 C 1871.38 714.33 1883.12 716.86 1894.18 728.89 C 1941.40 780.22 1950.90 1006.33 1936.46 1216.34 C 2088.41 1436.84 2129.86 1716.69 2129.86 1813.99 L 2129.85 1813.99 L 2129.85 1813.99 L 2059.66 1790.60 L 2059.66 1954.38 L 2059.66 1954.37 L 2059.66 1954.38 C 2059.66 1954.37 2059.66 1954.37 2059.66 1954.37 L 1919.28 1860.79 L 1919.28 1930.98 C 1919.28 1930.98 1907.21 1929.32 1888.64 1929.32 C 1839.74 1929.32 1745.80 1940.84 1708.71 2024.57 L 1659.58 2016.38 C 1651.25 2064.15 1621.82 2092.73 1590.76 2106.53 C 1582.94 2149.36 1525.50 2188.35 1451.64 2188.35 L 1451.32 2188.35 C 1377.02 2188.35 1319.26 2149.25 1311.54 2106.35 C 1279.78 2092.10 1249.81 2062.38 1242.47 2012.44 L 1193.97 2024.57 C 1156.88 1940.84 1062.94 1929.32 1014.04 1929.32 C 995.47 1929.32 983.40 1930.98 983.40 1930.98 L 983.40 1860.79 L 843.02 1954.37 C 843.02 1954.37 843.02 1954.37 843.02 1954.38 L 843.02 1954.37 L 843.01 1954.38 L 843.01 1790.60 L 772.83 1814.00 L 772.83 1813.99 L 772.82 1814.00 C 772.82 1813.21 772.83 1812.42 772.83 1811.61 C 772.83 1811.34 772.84 1811.06 772.84 1810.78 C 772.84 1810.25 772.85 1809.71 772.86 1809.16 C 772.86 1808.82 772.87 1808.47 772.87 1808.12 C 772.88 1807.63 772.89 1807.14 772.90 1806.64 C 772.90 1806.25 772.91 1805.86 772.92 1805.46 C 772.93 1805.00 772.94 1804.54 772.95 1804.06 C 772.96 1803.63 772.98 1803.20 772.99 1802.77 C 773.00 1802.32 773.01 1801.88 773.03 1801.42 C 773.04 1800.96 773.06 1800.48 773.07 1800.01 C 773.09 1799.59 773.10 1799.16 773.12 1798.73 C 773.14 1798.23 773.16 1797.73 773.18 1797.22 C 773.19 1796.80 773.21 1796.38 773.23 1795.96 C 773.25 1795.43 773.27 1794.89 773.30 1794.36 C 773.31 1793.96 773.33 1793.56 773.35 1793.16 C 773.38 1792.58 773.41 1792.01 773.43 1791.42 C 773.45 1791.05 773.47 1790.68 773.49 1790.30 C 773.52 1789.68 773.56 1789.06 773.59 1788.43 C 773.61 1788.09 773.63 1787.75 773.65 1787.40 C 773.69 1786.73 773.73 1786.06 773.77 1785.38 C 773.78 1785.08 773.80 1784.78 773.82 1784.48 C 773.87 1783.74 773.91 1783.00 773.96 1782.26 C 773.98 1782.03 773.99 1781.79 774.01 1781.56 C 774.06 1780.74 774.11 1779.91 774.17 1779.08 C 774.18 1778.93 774.19 1778.79 774.20 1778.65 C 774.27 1777.72 774.33 1776.79 774.40 1775.84 C 774.40 1775.84 774.40 1775.83 774.40 1775.82 C 783.22 1656.17 830.89 1412.72 966.22 1216.34 C 951.78 1006.33 961.28 780.22 1008.50 728.89 C 1019.55 716.86 1031.30 714.33 1039.18 714.33 C 1085.82 714.33 1212.56 857.16 1295.61 957.17 L 1297.04 956.68 C 1346.93 939.81 1399.14 931.38 1451.34 931.38 C 1503.55 931.38 1555.75 939.81 1605.64 956.68 L 1607.08 957.17 C 1690.12 857.16 1816.86 714.33 1863.49 714.33 M 1862.14 763.14 C 1862.23 763.26 1862.32 763.39 1862.41 763.52 C 1862.32 763.39 1862.23 763.26 1862.14 763.14 C 1861.90 762.82 1861.66 762.51 1861.41 762.22 C 1861.41 762.22 1861.41 762.22 1861.41 762.22 C 1861.65 762.51 1861.90 762.82 1862.14 763.14 M 1040.29 763.49 C 1040.61 763.04 1040.94 762.61 1041.26 762.22 C 1040.94 762.61 1040.61 763.04 1040.29 763.49 M 1863.40 764.98 C 1863.11 764.53 1862.83 764.11 1862.54 763.71 C 1862.83 764.11 1863.11 764.53 1863.40 764.98 M 1039.30 764.94 C 1039.51 764.61 1039.72 764.32 1039.93 764.01 C 1039.72 764.32 1039.51 764.61 1039.30 764.94 M 1864.39 766.63 C 1864.14 766.19 1863.89 765.78 1863.64 765.38 C 1863.89 765.78 1864.14 766.19 1864.39 766.63 M 1038.32 766.57 C 1038.51 766.25 1038.69 765.95 1038.87 765.65 C 1038.69 765.95 1038.51 766.25 1038.32 766.57 M 1865.39 768.47 C 1865.15 768.01 1864.92 767.58 1864.68 767.15 C 1864.92 767.58 1865.15 768.01 1865.39 768.47 M 1037.34 768.38 C 1037.51 768.05 1037.68 767.73 1037.85 767.42 C 1037.68 767.73 1037.51 768.05 1037.34 768.38 M 1866.38 770.49 C 1866.15 770.00 1865.93 769.54 1865.70 769.09 C 1865.93 769.54 1866.15 770.00 1866.38 770.49 M 1036.35 770.36 C 1036.52 770.02 1036.68 769.69 1036.85 769.36 C 1036.68 769.69 1036.52 770.02 1036.35 770.36 M 1867.38 772.69 C 1867.15 772.18 1866.93 771.68 1866.71 771.19 C 1866.93 771.68 1867.15 772.18 1867.38 772.69 M 1035.37 772.52 C 1035.53 772.16 1035.68 771.82 1035.84 771.48 C 1035.68 771.82 1035.53 772.16 1035.37 772.52 M 1868.38 775.09 C 1868.15 774.53 1867.93 774.00 1867.71 773.47 C 1867.93 774.00 1868.15 774.53 1868.38 775.09 M 1034.84 773.77 C 1034.77 773.95 1034.69 774.12 1034.62 774.30 C 1034.54 774.48 1034.47 774.66 1034.40 774.85 C 1034.47 774.66 1034.54 774.48 1034.62 774.30 C 1034.69 774.12 1034.77 773.95 1034.84 773.77 M 1869.37 777.66 C 1869.15 777.07 1868.93 776.49 1868.71 775.92 C 1868.93 776.49 1869.15 777.07 1869.37 777.66 M 1033.43 777.34 C 1033.57 776.97 1033.70 776.60 1033.85 776.24 C 1033.70 776.60 1033.57 776.97 1033.43 777.34 M 1870.37 780.43 C 1870.15 779.79 1869.92 779.17 1869.70 778.56 C 1869.92 779.17 1870.15 779.79 1870.37 780.43 M 1032.46 779.99 C 1032.59 779.62 1032.72 779.25 1032.85 778.89 C 1032.72 779.25 1032.59 779.62 1032.46 779.99 M 1871.36 783.39 C 1871.14 782.70 1870.92 782.03 1870.69 781.37 C 1870.92 782.02 1871.14 782.70 1871.36 783.39 M 1031.51 782.79 C 1031.63 782.43 1031.75 782.07 1031.87 781.72 C 1031.75 782.07 1031.63 782.43 1031.51 782.79 M 1872.36 786.55 C 1872.13 785.80 1871.90 785.07 1871.67 784.36 C 1871.90 785.07 1872.13 785.80 1872.36 786.55 M 1030.57 785.72 C 1030.68 785.39 1030.78 785.05 1030.88 784.73 C 1030.78 785.05 1030.68 785.39 1030.57 785.72 M 1873.36 789.92 C 1873.12 789.11 1872.89 788.30 1872.65 787.51 C 1872.89 788.30 1873.12 789.11 1873.36 789.92 M 1029.66 788.74 C 1029.74 788.47 1029.82 788.18 1029.91 787.91 C 1029.82 788.18 1029.74 788.47 1029.66 788.74 M 1874.37 793.55 C 1874.12 792.64 1873.87 791.74 1873.62 790.86 C 1873.87 791.74 1874.12 792.64 1874.37 793.55 M 1028.94 791.27 C 1028.93 791.30 1028.92 791.33 1028.91 791.35 C 1028.88 791.49 1028.84 791.64 1028.80 791.78 C 1028.84 791.64 1028.88 791.49 1028.91 791.35 C 1028.92 791.32 1028.93 791.30 1028.94 791.27 M 1875.40 797.50 C 1875.13 796.44 1874.86 795.39 1874.59 794.37 C 1874.86 795.39 1875.13 796.44 1875.40 797.50 M 1877.17 804.87 C 1877.58 806.64 1877.98 808.45 1878.38 810.32 C 1877.98 808.45 1877.58 806.64 1877.17 804.87 C 1876.63 802.51 1876.09 800.25 1875.54 798.07 C 1876.09 800.25 1876.63 802.51 1877.17 804.87 M 1879.28 814.67 C 1879.05 813.55 1878.82 812.45 1878.59 811.35 C 1878.82 812.45 1879.05 813.55 1879.28 814.67 M 1880.17 819.20 C 1879.98 818.20 1879.79 817.24 1879.59 816.27 C 1879.79 817.24 1879.98 818.20 1880.17 819.20 M 1881.04 823.88 C 1880.87 822.95 1880.70 822.03 1880.53 821.11 C 1880.70 822.02 1880.87 822.95 1881.04 823.88 M 1881.90 828.73 C 1881.74 827.82 1881.59 826.93 1881.43 826.03 C 1881.59 826.93 1881.74 827.82 1881.90 828.73 M 1882.74 833.74 C 1882.60 832.85 1882.45 831.97 1882.30 831.09 C 1882.45 831.97 1882.60 832.85 1882.74 833.74 M 1883.57 838.88 C 1883.43 838.02 1883.30 837.16 1883.16 836.32 C 1883.30 837.16 1883.43 838.02 1883.57 838.88 M 1884.37 844.19 C 1884.25 843.35 1884.12 842.51 1884.00 841.68 C 1884.12 842.51 1884.25 843.35 1884.37 844.19 M 1884.85 847.50 C 1884.95 848.21 1885.05 848.92 1885.15 849.63 C 1885.06 848.92 1884.95 848.21 1884.85 847.50 C 1884.84 847.39 1884.82 847.29 1884.81 847.19 C 1884.82 847.29 1884.84 847.40 1884.85 847.50 M 1885.91 855.19 C 1885.81 854.41 1885.71 853.63 1885.60 852.86 C 1885.71 853.63 1885.81 854.41 1885.91 855.19 M 1886.64 860.84 C 1886.55 860.13 1886.46 859.41 1886.37 858.70 C 1886.46 859.41 1886.55 860.13 1886.64 860.84 M 1887.34 866.54 C 1887.27 865.92 1887.19 865.30 1887.12 864.69 C 1887.19 865.30 1887.27 865.92 1887.34 866.54 M 1887.99 872.12 C 1887.94 871.69 1887.89 871.26 1887.85 870.84 C 1887.90 871.26 1887.94 871.69 1887.99 872.12 M 1171.02 885.32 C 1170.28 884.47 1169.52 883.61 1168.76 882.77 C 1169.52 883.61 1170.28 884.47 1171.02 885.32 M 1731.74 885.23 C 1732.26 884.63 1732.80 884.04 1733.33 883.44 C 1732.80 884.04 1732.26 884.63 1731.74 885.23 M 1173.22 887.92 C 1172.72 887.32 1172.22 886.72 1171.71 886.12 C 1172.22 886.72 1172.72 887.32 1173.22 887.92 M 1729.58 887.78 C 1729.97 887.31 1730.36 886.85 1730.76 886.38 C 1730.36 886.85 1729.96 887.31 1729.58 887.78 M 1175.37 890.59 C 1174.92 890.02 1174.46 889.45 1174.00 888.88 C 1174.46 889.45 1174.92 890.02 1175.37 890.59 M 1727.49 890.36 C 1727.84 889.92 1728.19 889.48 1728.54 889.05 C 1728.19 889.48 1727.84 889.92 1727.49 890.36 M 1177.53 893.41 C 1177.07 892.79 1176.61 892.18 1176.14 891.58 C 1176.61 892.18 1177.07 892.79 1177.53 893.41 M 1725.54 892.90 C 1725.84 892.50 1726.13 892.10 1726.44 891.71 C 1726.13 892.10 1725.84 892.50 1725.54 892.90 M 1179.99 896.81 C 1179.40 895.96 1178.79 895.12 1178.18 894.28 C 1178.79 895.12 1179.40 895.96 1179.99 896.81 M 1181.80 899.46 C 1181.51 899.03 1181.22 898.60 1180.92 898.17 C 1181.22 898.60 1181.51 899.03 1181.80 899.46 M 1721.00 899.29 C 1721.13 899.09 1721.27 898.89 1721.40 898.69 C 1721.27 898.89 1721.13 899.09 1721.00 899.29 M 1183.10 901.45 C 1183.23 901.65 1183.36 901.86 1183.49 902.06 C 1183.36 901.86 1183.23 901.65 1183.10 901.45 C 1183.01 901.32 1182.93 901.19 1182.85 901.06 C 1182.93 901.19 1183.01 901.32 1183.10 901.45 M 1719.35 901.81 C 1719.45 901.66 1719.55 901.50 1719.65 901.34 C 1719.55 901.50 1719.45 901.66 1719.35 901.81 M 1184.97 904.46 C 1184.86 904.27 1184.74 904.08 1184.63 903.89 C 1184.74 904.08 1184.86 904.27 1184.97 904.46 M 1892.11 916.88 C 1892.11 916.85 1892.10 916.83 1892.10 916.80 C 1892.10 916.83 1892.11 916.85 1892.11 916.88 M 1892.61 924.11 C 1892.61 923.98 1892.60 923.86 1892.59 923.74 C 1892.60 923.86 1892.61 923.98 1892.61 924.11 M 1893.09 931.47 C 1893.08 931.30 1893.07 931.13 1893.06 930.96 C 1893.07 931.13 1893.08 931.30 1893.09 931.47 M 1893.54 938.94 C 1893.53 938.76 1893.51 938.59 1893.51 938.41 C 1893.52 938.59 1893.53 938.77 1893.54 938.94 M 1893.95 946.53 C 1893.94 946.37 1893.93 946.21 1893.92 946.05 C 1893.93 946.21 1893.94 946.37 1893.95 946.53 M 1894.32 954.17 C 1894.32 954.08 1894.32 953.99 1894.31 953.90 C 1894.32 953.99 1894.32 954.08 1894.32 954.17 M 1863.49 664.33 C 1840.43 664.33 1816.30 674.83 1785.24 698.36 C 1764.72 713.90 1741.24 735.05 1713.47 763.01 C 1677.81 798.90 1636.35 844.79 1589.98 899.70 C 1544.89 887.53 1498.40 881.38 1451.34 881.38 C 1404.27 881.38 1357.77 887.53 1312.69 899.70 C 1266.33 844.79 1224.87 798.90 1189.21 763.01 C 1161.43 735.05 1137.96 713.90 1117.44 698.36 C 1086.38 674.83 1062.24 664.33 1039.18 664.33 C 1013.86 664.33 989.89 675.24 971.68 695.05 C 953.92 714.37 941.06 743.25 931.22 785.95 C 923.58 819.09 917.91 860.65 914.37 909.49 C 908.28 993.31 908.60 1096.78 915.20 1202.55 C 885.61 1247.30 858.61 1296.55 834.83 1349.19 C 811.90 1399.92 791.76 1454.22 774.95 1510.56 C 738.14 1633.99 727.55 1732.43 724.66 1770.57 L 724.62 1770.85 L 724.52 1772.40 C 724.45 1773.33 724.38 1774.25 724.32 1775.17 L 724.32 1775.23 L 724.31 1775.29 L 724.31 1775.36 L 724.29 1775.60 C 724.23 1776.53 724.17 1777.41 724.11 1778.29 L 724.07 1778.99 L 724.06 1778.99 C 724.01 1779.81 723.96 1780.63 723.91 1781.44 L 723.85 1782.48 C 723.80 1783.20 723.76 1783.93 723.72 1784.65 L 723.66 1785.69 C 723.62 1786.41 723.59 1787.10 723.55 1787.78 L 723.50 1788.92 L 723.49 1788.96 L 723.49 1789.01 L 723.47 1789.34 L 723.41 1790.71 L 723.41 1790.71 C 723.39 1791.20 723.36 1791.68 723.34 1792.16 C 723.32 1792.75 723.29 1793.33 723.27 1793.91 C 723.25 1794.27 723.24 1794.62 723.23 1794.97 L 723.21 1795.25 L 723.20 1795.72 C 723.18 1796.14 723.16 1796.56 723.15 1796.97 L 723.12 1797.87 L 723.10 1798.29 C 723.09 1798.78 723.07 1799.29 723.05 1799.80 L 723.05 1799.80 C 723.03 1800.35 723.02 1800.90 723.00 1801.44 C 722.99 1801.92 722.98 1802.39 722.97 1802.86 C 722.95 1803.37 722.94 1803.87 722.93 1804.37 L 722.92 1804.74 L 722.90 1805.63 L 722.90 1805.70 L 722.90 1805.77 L 722.88 1806.85 L 722.88 1807.32 L 722.87 1807.58 C 722.87 1807.87 722.86 1808.16 722.86 1808.45 L 722.86 1808.45 C 722.85 1809.07 722.84 1809.67 722.84 1810.28 L 722.84 1810.28 L 722.84 1810.42 L 722.83 1811.27 C 722.82 1812.18 722.82 1813.10 722.82 1814.00 L 722.82 1883.37 L 788.63 1861.43 L 793.01 1859.97 L 793.01 1954.38 L 793.01 2050.41 L 871.23 1995.65 L 933.39 1954.22 L 933.39 1988.79 L 990.11 1980.53 C 991.13 1980.40 1000.37 1979.32 1014.04 1979.32 C 1053.32 1979.32 1123.00 1987.83 1148.25 2044.82 L 1165.29 2083.28 L 1206.10 2073.08 L 1208.87 2072.38 C 1214.32 2083.68 1220.98 2094.25 1228.82 2104.04 C 1240.33 2118.42 1254.40 2130.88 1270.21 2140.82 C 1281.43 2166.16 1302.10 2188.76 1330.33 2206.07 C 1347.07 2216.33 1365.85 2224.33 1386.12 2229.83 C 1406.98 2235.48 1428.91 2238.35 1451.32 2238.35 L 1451.64 2238.35 C 1473.95 2238.35 1495.80 2235.49 1516.56 2229.84 C 1536.76 2224.34 1555.46 2216.36 1572.14 2206.10 C 1600.19 2188.86 1620.77 2166.35 1631.99 2141.11 C 1647.25 2131.60 1660.91 2119.72 1672.21 2106.08 C 1680.68 2095.84 1687.83 2084.71 1693.63 2072.75 L 1700.49 2073.89 L 1738.72 2080.26 L 1754.42 2044.83 C 1779.67 1987.83 1849.35 1979.32 1888.63 1979.32 C 1902.28 1979.32 1911.51 1980.40 1912.55 1980.53 L 1969.67 1988.85 L 1969.43 1954.32 L 2031.44 1995.66 L 2109.66 2050.41 L 2109.66 1954.38 L 2109.66 1859.98 L 2114.04 1861.43 L 2121.74 1864.00 L 2129.85 1864.00 L 2179.85 1864.00 L 2179.85 1814.00 C 2179.85 1760.44 2168.97 1662.55 2138.44 1548.44 C 2121.73 1486.01 2100.96 1425.74 2076.72 1369.33 C 2050.79 1308.99 2020.81 1252.97 1987.47 1202.55 C 1994.08 1096.78 1994.39 993.31 1988.31 909.50 C 1984.76 860.65 1979.09 819.09 1971.46 785.95 C 1961.62 743.26 1948.76 714.37 1930.98 695.04 C 1912.78 675.24 1888.81 664.33 1863.49 664.33 L 1863.49 664.33 Z M 1069.72 784.43 L 1067.90 783.18 L 1072.68 786.23 L 1069.72 784.43 L 1069.72 784.43 Z M 1828.86 786.93 L 1833.15 784.48 L 1832.12 785.22 L 1827.80 787.61 L 1828.86 786.93 L 1828.86 786.93 Z M 1075.80 788.60 L 1074.54 787.73 L 1077.21 789.12 L 1078.40 789.88 L 1075.80 788.60 L 1075.80 788.60 Z M 1823.73 789.87 L 1826.40 788.34 L 1825.67 788.79 L 1823.73 789.87 L 1823.73 789.87 Z M 1821.22 791.83 L 1825.87 789.64 L 1824.31 790.73 L 1821.38 792.08 C 1821.33 792.01 1821.28 791.92 1821.22 791.83 L 1821.22 791.83 Z M 1079.85 790.60 L 1078.70 789.90 L 1081.69 791.45 C 1081.68 791.47 1081.67 791.48 1081.67 791.50 L 1079.85 790.60 L 1079.85 790.60 Z M 1079.80 791.34 L 1078.38 790.37 L 1081.45 791.83 L 1081.46 791.83 C 1081.41 791.90 1081.37 791.96 1081.33 792.03 L 1079.80 791.34 L 1079.80 791.34 Z M 1892.11 916.88 L 1941.99 913.44 L 1892.11 916.88 L 1892.11 916.88 Z" fill="#285448" fill-rule="nonzero" group-id="5" node-id="59" stroke="none" target-height="1574.019" target-width="1457.034" target-x="722.818" target-y="664.332"></path></g><g node-id="87"><path d="M 1591.84 2071.36 L 1310.80 2071.36 C 1310.80 2071.36 1308.64 2071.53 1310.80 2100.61 C 1314.14 2145.70 1373.71 2188.35 1451.32 2188.35 L 1451.64 2188.35 C 1528.90 2188.35 1588.19 2145.70 1591.52 2100.61 C 1593.67 2071.53 1591.84 2071.36 1591.84 2071.36 Z" fill="#ffdeb7" fill-rule="nonzero" group-id="6" node-id="64" stroke="none" target-height="116.98486" target-width="285.02893" target-x="1308.64" target-y="2071.362"></path><path d="M 1733.92 882.77 C 1680.51 941.38 1686.90 1032.80 1747.44 1084.03 L 1890.41 1205.00 C 1907.77 947.55 1882.91 788.07 1861.41 762.22 C 1840.96 771.24 1790.61 820.57 1733.92 882.77 Z M 1041.26 762.22 C 1019.76 788.07 994.90 947.55 1012.27 1204.99 L 1155.24 1084.03 C 1215.77 1032.81 1222.17 941.38 1168.76 882.77 C 1112.07 820.57 1061.72 771.24 1041.26 762.22 L 1041.26 762.22 Z" fill="#c3b9b1" fill-rule="nonzero" group-id="6" node-id="66" stroke="none" target-height="442.77295" target-width="912.86707" target-x="994.902" target-y="762.223"></path><path d="M 1708.71 2024.57 C 1759.89 1909.05 1919.28 1930.98 1919.28 1930.98 L 1919.28 1860.79 L 2059.66 1954.38 L 2059.66 1790.60 L 2129.86 1813.99 C 2129.86 1711.04 2083.46 1403.69 1908.84 1178.54 C 1678.18 881.13 1224.50 881.13 993.84 1178.54 C 819.22 1403.69 772.82 1711.04 772.82 1813.99 L 843.01 1790.60 L 843.01 1954.38 L 983.40 1860.79 L 983.40 1930.98 C 983.40 1930.98 1142.79 1909.04 1193.97 2024.57 L 1287.56 2001.17 L 1568.32 2001.17 L 1708.71 2024.57 Z" fill="#ffebd2" fill-rule="nonzero" group-id="6" node-id="68" stroke="none" target-height="1143.438" target-width="1357.0339" target-x="772.822" target-y="881.129"></path><path d="M 1196.41 1693.95 L 1404.55 1977.77 L 1404.55 1369.45 L 880.66 1369.45 C 798.01 1552.19 772.83 1738.31 772.83 1813.99 L 843.02 1790.60 L 843.02 1954.38 C 910.36 1806.24 1000.94 1720.11 1065.71 1673.69 C 1107.69 1643.59 1165.86 1652.29 1196.41 1693.95 Z M 1706.27 1693.95 L 1498.13 1977.77 L 1498.13 1369.45 L 2022.02 1369.45 C 2104.66 1552.19 2129.85 1738.31 2129.85 1813.99 L 2059.66 1790.60 L 2059.66 1954.38 C 1992.33 1806.24 1901.74 1720.11 1836.97 1673.69 C 1794.98 1643.59 1736.82 1652.29 1706.27 1693.95 L 1706.27 1693.95 Z" fill="#c3b9b1" fill-rule="nonzero" group-id="6" node-id="70" stroke="none" target-height="608.323" target-width="1357.0271" target-x="772.826" target-y="1369.45"></path><path d="M 1568.33 1603.42 L 1334.36 1603.42 C 1309.50 1737.70 1240.77 1836.91 1240.77 1988.35 C 1240.77 2081.01 1310.96 2116.71 1357.75 2116.71 C 1404.55 2116.71 1451.34 2094.76 1451.34 2094.76 C 1451.34 2094.76 1498.14 2116.71 1544.93 2116.71 C 1591.72 2116.71 1661.92 2081.01 1661.92 1988.35 C 1661.92 1836.91 1593.18 1737.70 1568.33 1603.42 L 1568.33 1603.42 Z" fill="#ffebd2" fill-rule="nonzero" group-id="6" node-id="72" stroke="none" target-height="513.2899" target-width="421.14905" target-x="1240.768" target-y="1603.421"></path><path d="M 1936.46 1216.41 C 1950.90 1006.38 1941.40 780.22 1894.18 728.89 C 1883.12 716.86 1871.38 714.33 1863.49 714.33 C 1816.86 714.33 1690.12 857.16 1607.08 957.17 L 1605.64 956.68 C 1505.85 922.94 1396.83 922.94 1297.04 956.68 L 1295.60 957.17 C 1212.56 857.16 1085.82 714.33 1039.18 714.33 C 1031.30 714.33 1019.55 716.86 1008.50 728.89 C 961.27 780.23 951.77 1006.38 966.22 1216.41 C 814.30 1436.90 772.82 1716.70 772.82 1813.99 C 897.99 1527.91 1077.80 1433.13 1155.64 1404.33 C 1177.58 1396.22 1200.72 1392.41 1224.14 1392.88 C 1261.11 1393.62 1291.35 1422.90 1295.97 1459.58 L 1357.75 1949.69 L 1544.93 1949.69 L 1606.71 1459.58 C 1611.33 1422.90 1641.57 1393.62 1678.53 1392.88 C 1701.96 1392.41 1725.10 1396.22 1747.03 1404.33 C 1824.87 1433.12 2004.69 1527.91 2129.85 1813.99 C 2129.86 1716.70 2088.38 1436.90 1936.46 1216.41 L 1936.46 1216.41 Z M 1041.26 762.22 C 1061.72 771.24 1112.07 820.57 1168.76 882.77 C 1190.48 906.61 1202.26 935.88 1204.55 965.67 C 1205.95 983.85 1196.71 1000.93 1181.06 1010.28 C 1113.98 1050.33 1057.27 1101.61 1009.58 1159.25 C 997.92 928.72 1021.07 786.50 1041.26 762.22 L 1041.26 762.22 Z M 1733.93 882.77 C 1790.61 820.56 1840.96 771.24 1861.41 762.22 C 1881.61 786.50 1904.76 928.72 1893.10 1159.25 C 1845.41 1101.61 1788.69 1050.33 1721.62 1010.28 C 1705.97 1000.93 1696.73 983.84 1698.13 965.67 C 1700.42 935.88 1712.20 906.61 1733.93 882.77 Z" fill="#878791" fill-rule="nonzero" group-id="6" node-id="74" stroke="none" target-height="1235.3611" target-width="1357.033" target-x="772.823" target-y="714.331"></path><path d="M 1170.58 1486.44 C 1170.57 1512.28 1191.50 1533.24 1217.35 1533.25 C 1243.19 1533.27 1264.15 1512.32 1264.16 1486.48 C 1264.16 1486.47 1264.16 1486.45 1264.16 1486.44 C 1264.18 1460.59 1243.24 1439.63 1217.39 1439.62 C 1191.55 1439.61 1170.59 1460.55 1170.58 1486.39 C 1170.58 1486.40 1170.58 1486.42 1170.58 1486.44 Z" fill="#464655" fill-rule="nonzero" group-id="6" node-id="76" stroke="none" target-height="93.65796" target-width="93.611084" target-x="1170.565" target-y="1439.607"></path><path d="M 1638.52 1486.44 C 1638.51 1512.28 1659.45 1533.24 1685.29 1533.25 C 1711.13 1533.27 1732.09 1512.32 1732.11 1486.48 C 1732.11 1486.47 1732.11 1486.45 1732.11 1486.44 C 1732.12 1460.59 1711.18 1439.63 1685.33 1439.62 C 1659.49 1439.61 1638.53 1460.55 1638.52 1486.39 C 1638.52 1486.40 1638.52 1486.42 1638.52 1486.44 Z" fill="#464655" fill-rule="nonzero" group-id="6" node-id="78" stroke="none" target-height="93.65796" target-width="93.61401" target-x="1638.505" target-y="1439.607"></path><path d="M 1544.93 1949.70 C 1544.93 1994.93 1503.03 2047.96 1451.34 2047.96 C 1399.65 2047.96 1357.75 1994.92 1357.75 1949.70 C 1357.75 1904.47 1399.65 1884.18 1451.34 1884.18 C 1503.03 1884.18 1544.93 1904.47 1544.93 1949.70 Z" fill="#464655" fill-rule="nonzero" group-id="6" node-id="80" stroke="none" target-height="163.781" target-width="187.177" target-x="1357.754" target-y="1884.184"></path></g></svg>