<?xml version="1.0" standalone="no"?><!DOCTYPE svg PUBLIC "-//W3C//DTD SVG 1.1//EN" "http://www.w3.org/Graphics/SVG/1.1/DTD/svg11.dtd"><svg height="2903" node-id="1" sillyvg="true" template-height="2903" template-width="2903" version="1.1" viewBox="0 0 2903 2903" width="2903" xmlns="http://www.w3.org/2000/svg" xmlns:xlink="http://www.w3.org/1999/xlink"><defs node-id="24"></defs><g node-id="76"><g node-id="77"><path d="M 1451.34 2807.30 C 1268.29 2807.30 1090.71 2771.44 923.54 2700.73 C 843.19 2666.75 765.69 2624.69 693.20 2575.71 C 621.41 2527.21 553.89 2471.50 492.53 2410.14 C 431.18 2348.79 375.47 2281.27 326.96 2209.47 C 277.99 2136.98 235.93 2059.49 201.94 1979.14 C 131.24 1811.96 95.38 1634.39 95.38 1451.34 C 95.38 1268.29 131.24 1090.71 201.94 923.54 C 235.93 843.19 277.99 765.69 326.96 693.20 C 375.47 621.40 431.18 553.89 492.53 492.53 C 553.89 431.18 621.41 375.47 693.20 326.96 C 765.69 277.99 843.19 235.93 923.54 201.94 C 1090.71 131.24 1268.29 95.38 1451.34 95.38 C 1634.39 95.38 1811.97 131.24 1979.14 201.94 C 2059.49 235.93 2136.99 277.99 2209.48 326.96 C 2281.27 375.47 2348.79 431.18 2410.15 492.53 C 2471.50 553.89 2527.21 621.40 2575.72 693.20 C 2624.69 765.69 2666.75 843.19 2700.74 923.54 C 2771.44 1090.71 2807.30 1268.29 2807.30 1451.34 C 2807.30 1634.39 2771.44 1811.96 2700.74 1979.14 C 2666.75 2059.49 2624.69 2136.98 2575.72 2209.47 C 2527.21 2281.27 2471.50 2348.79 2410.15 2410.14 C 2348.79 2471.50 2281.27 2527.21 2209.48 2575.71 C 2136.99 2624.69 2059.49 2666.75 1979.14 2700.73 C 1811.97 2771.44 1634.39 2807.30 1451.34 2807.30 Z" fill="#c8c7ce" fill-rule="nonzero" group-id="1,2" node-id="30" stroke="none" target-height="2711.9138" target-width="2711.915" target-x="95.382" target-y="95.382"></path><path d="M 1451.34 105.38 C 2194.69 105.38 2797.30 707.99 2797.30 1451.34 C 2797.30 2194.69 2194.69 2797.30 1451.34 2797.30 C 707.99 2797.30 105.38 2194.69 105.38 1451.34 C 105.38 707.99 707.99 105.38 1451.34 105.38 M 1451.34 85.38 C 1358.67 85.38 1266.06 94.72 1176.07 113.14 C 1088.36 131.08 1002.09 157.86 919.64 192.74 C 838.70 226.97 760.63 269.35 687.61 318.68 C 615.28 367.54 547.27 423.66 485.46 485.46 C 423.65 547.27 367.54 615.28 318.68 687.61 C 269.34 760.63 226.97 838.70 192.73 919.64 C 157.86 1002.09 131.08 1088.36 113.13 1176.07 C 94.72 1266.06 85.38 1358.67 85.38 1451.34 C 85.38 1544.01 94.72 1636.62 113.13 1726.61 C 131.08 1814.32 157.86 1900.59 192.73 1983.04 C 226.97 2063.98 269.34 2142.05 318.68 2215.07 C 367.54 2287.40 423.65 2355.41 485.46 2417.22 C 547.27 2479.03 615.28 2535.14 687.61 2584.00 C 760.63 2633.34 838.70 2675.71 919.64 2709.95 C 1002.09 2744.82 1088.36 2771.60 1176.07 2789.55 C 1266.06 2807.96 1358.67 2817.30 1451.34 2817.30 C 1544.01 2817.30 1636.62 2807.96 1726.61 2789.55 C 1814.32 2771.60 1900.60 2744.82 1983.04 2709.95 C 2063.98 2675.71 2142.05 2633.34 2215.07 2584.00 C 2287.40 2535.14 2355.41 2479.03 2417.22 2417.22 C 2479.03 2355.41 2535.14 2287.40 2584.00 2215.07 C 2633.34 2142.05 2675.71 2063.98 2709.95 1983.04 C 2744.82 1900.60 2771.60 1814.32 2789.55 1726.61 C 2807.96 1636.62 2817.30 1544.01 2817.30 1451.34 C 2817.30 1358.67 2807.96 1266.06 2789.55 1176.07 C 2771.60 1088.36 2744.82 1002.09 2709.95 919.64 C 2675.71 838.70 2633.34 760.63 2584.00 687.61 C 2535.14 615.28 2479.03 547.27 2417.22 485.46 C 2355.41 423.65 2287.40 367.54 2215.07 318.68 C 2142.05 269.35 2063.98 226.97 1983.04 192.74 C 1900.60 157.87 1814.32 131.08 1726.61 113.14 C 1636.62 94.72 1544.00 85.38 1451.34 85.38 L 1451.34 85.38 Z" fill="#195e2c" fill-rule="nonzero" group-id="1,2" node-id="32" stroke="none" target-height="2731.914" target-width="2731.916" target-x="85.382" target-y="85.384"></path></g><g node-id="78"><path d="M 1451.34 2655.67 C 1288.78 2655.67 1131.05 2623.82 982.54 2561.01 C 911.17 2530.82 842.34 2493.46 777.95 2449.96 C 714.19 2406.88 654.24 2357.42 599.75 2302.93 C 545.26 2248.45 495.80 2188.49 452.72 2124.73 C 409.22 2060.34 371.86 1991.51 341.67 1920.14 C 278.86 1771.63 247.01 1613.90 247.01 1451.34 C 247.01 1288.78 278.86 1131.06 341.67 982.55 C 371.86 911.17 409.22 842.34 452.72 777.95 C 495.80 714.19 545.26 654.24 599.75 599.75 C 654.24 545.26 714.19 495.80 777.95 452.72 C 842.34 409.22 911.17 371.86 982.54 341.67 C 1131.05 278.86 1288.78 247.01 1451.34 247.01 C 1613.90 247.01 1771.63 278.86 1920.14 341.67 C 1991.51 371.86 2060.34 409.22 2124.73 452.72 C 2188.49 495.80 2248.45 545.26 2302.93 599.75 C 2357.42 654.24 2406.89 714.19 2449.96 777.95 C 2493.46 842.34 2530.82 911.17 2561.01 982.55 C 2623.82 1131.06 2655.67 1288.78 2655.67 1451.34 C 2655.67 1613.90 2623.82 1771.63 2561.01 1920.14 C 2530.82 1991.51 2493.46 2060.34 2449.96 2124.73 C 2406.89 2188.49 2357.42 2248.45 2302.93 2302.93 C 2248.45 2357.42 2188.49 2406.88 2124.73 2449.96 C 2060.34 2493.46 1991.51 2530.82 1920.14 2561.01 C 1771.63 2623.82 1613.90 2655.67 1451.34 2655.67 Z" fill="#e4e4ec" fill-rule="nonzero" group-id="1,3" node-id="37" stroke="none" target-height="2408.66" target-width="2408.66" target-x="247.01" target-y="247.009"></path><path d="M 1451.34 297.01 C 2088.86 297.01 2605.67 813.82 2605.67 1451.34 C 2605.67 2088.86 2088.86 2605.67 1451.34 2605.67 C 813.82 2605.67 297.01 2088.86 297.01 1451.34 C 297.01 813.82 813.82 297.01 1451.34 297.01 M 1451.34 197.01 C 1366.30 197.01 1281.29 205.58 1198.65 222.49 C 1118.07 238.98 1038.81 263.58 963.07 295.62 C 888.72 327.07 817.02 365.98 749.96 411.29 C 683.57 456.14 621.13 507.66 564.39 564.39 C 507.66 621.13 456.15 683.57 411.29 749.96 C 365.99 817.02 327.07 888.72 295.62 963.07 C 263.59 1038.81 238.98 1118.07 222.49 1198.66 C 205.58 1281.29 197.01 1366.30 197.01 1451.34 C 197.01 1536.38 205.58 1621.40 222.49 1704.03 C 238.98 1784.61 263.59 1863.87 295.62 1939.61 C 327.07 2013.96 365.99 2085.66 411.29 2152.72 C 456.15 2219.11 507.66 2281.55 564.40 2338.28 C 621.13 2395.02 683.57 2446.53 749.96 2491.39 C 817.02 2536.69 888.72 2575.61 963.07 2607.05 C 1038.81 2639.09 1118.07 2663.70 1198.65 2680.18 C 1281.29 2697.09 1366.30 2705.67 1451.34 2705.67 C 1536.38 2705.67 1621.40 2697.09 1704.03 2680.18 C 1784.61 2663.70 1863.87 2639.09 1939.62 2607.05 C 2013.96 2575.61 2085.66 2536.69 2152.72 2491.39 C 2219.12 2446.53 2281.55 2395.02 2338.29 2338.28 C 2395.02 2281.55 2446.54 2219.11 2491.39 2152.72 C 2536.70 2085.66 2575.61 2013.96 2607.06 1939.61 C 2639.09 1863.87 2663.70 1784.61 2680.19 1704.03 C 2697.10 1621.40 2705.67 1536.38 2705.67 1451.34 C 2705.67 1366.30 2697.10 1281.29 2680.19 1198.65 C 2663.70 1118.07 2639.09 1038.81 2607.06 963.07 C 2575.61 888.72 2536.70 817.02 2491.39 749.96 C 2446.53 683.56 2395.02 621.13 2338.29 564.39 C 2281.55 507.66 2219.12 456.14 2152.72 411.29 C 2085.66 365.98 2013.96 327.07 1939.62 295.62 C 1863.87 263.58 1784.61 238.98 1704.03 222.49 C 1621.40 205.58 1536.38 197.01 1451.34 197.01 L 1451.34 197.01 Z" fill="#7d7f88" fill-rule="nonzero" group-id="1,3" node-id="39" stroke="none" target-height="2508.658" target-width="2508.658" target-x="197.011" target-y="197.009"></path></g><g node-id="79"><path d="M 246.61 1453.51 L 1451.32 248.79 L 2656.03 1453.51 L 1451.32 2658.22 Z" fill="#279b4a" fill-rule="nonzero" group-id="1,4" node-id="44" stroke="none" target-height="2409.4248" target-width="2409.4248" target-x="246.60773" target-y="248.79382"></path></g><path d="M 1451.34 2797.13 L 1057.17 2402.96 L 499.72 2402.96 L 499.72 1845.52 L 105.55 1451.34 L 499.72 1057.17 L 499.72 499.72 L 1057.17 499.72 L 1451.34 105.55 L 1845.51 499.72 L 2402.96 499.72 L 2402.96 1057.17 L 2797.13 1451.34 L 2402.96 1845.51 L 2402.96 2402.96 L 1845.51 2402.96 L 1451.34 2797.13 Z M 529.72 2372.96 L 1069.59 2372.96 L 1451.34 2754.71 L 1833.09 2372.96 L 2372.96 2372.96 L 2372.96 1833.09 L 2754.71 1451.34 L 2372.96 1069.59 L 2372.96 529.72 L 1833.09 529.72 L 1451.34 147.97 L 1069.59 529.72 L 529.72 529.72 L 529.72 1069.59 L 147.97 1451.34 L 529.72 1833.09 L 529.72 2372.96 Z" fill="#279b4a" fill-rule="nonzero" group-id="1,5,6" node-id="51" stroke="none" target-height="2691.5881" target-width="2691.589" target-x="105.545" target-y="105.546"></path></g><path d="M 2246.50 1129.60 C 2242.08 1128.45 2229.20 1122.49 2205.75 1092.11 C 2184.41 1064.62 2161.91 1026.55 2137.88 986.37 C 2097.12 918.12 2050.98 840.64 1991.00 777.97 C 1950.62 735.67 1907.75 714.33 1863.92 714.33 C 1832.58 714.33 1785.86 725.68 1742.03 780.08 C 1737.99 785.08 1734.15 790.08 1730.68 795.08 C 1644.94 749.71 1549.58 725.87 1451.15 725.87 C 1352.71 725.87 1257.35 749.71 1171.61 795.08 C 1168.15 790.08 1164.30 785.08 1160.27 780.08 C 1116.43 725.68 1069.71 714.33 1038.38 714.33 C 994.54 714.33 951.86 735.67 911.30 777.97 C 851.31 840.64 805.17 918.12 764.41 986.37 C 740.38 1026.56 717.70 1064.62 696.55 1092.11 C 673.09 1122.49 660.21 1128.45 655.79 1129.60 L 589.46 1146.52 L 616.95 1209.39 C 619.45 1215.16 633.49 1244.76 667.33 1273.79 C 697.89 1299.94 751.73 1331.28 835.16 1331.28 C 838.24 1331.28 841.32 1331.28 844.39 1331.09 C 812.09 1366.84 785.95 1405.49 766.53 1446.05 C 739.42 1502.38 725.77 1561.79 725.77 1622.16 C 725.77 1733.28 771.91 1839.21 859.00 1928.80 C 938.02 2009.94 1046.07 2072.61 1171.99 2110.68 C 1200.25 2133.55 1238.70 2152.59 1284.65 2166.05 C 1334.64 2180.66 1392.32 2188.35 1451.34 2188.35 C 1510.36 2188.35 1568.04 2180.66 1618.02 2166.05 C 1663.97 2152.59 1702.62 2133.75 1730.68 2110.68 C 1856.61 2072.61 1964.66 2009.94 2043.67 1928.80 C 2130.77 1839.21 2176.91 1733.09 2176.91 1622.16 C 2176.91 1561.60 2163.26 1502.38 2136.15 1446.05 C 2116.73 1405.49 2090.59 1366.84 2058.29 1331.09 C 2061.36 1331.09 2064.44 1331.28 2067.51 1331.28 C 2150.76 1331.28 2204.78 1300.13 2235.35 1273.79 C 2269.19 1244.76 2283.22 1214.96 2285.72 1209.39 L 2313.22 1146.52 L 2246.50 1129.60 Z" fill="#19602c" fill-rule="nonzero" node-id="56" stroke="none" target-height="1474.0149" target-width="1723.7542" target-x="589.462" target-y="714.333"></path><path d="M 2232.28 1186.12 C 2141.72 1162.86 2075.01 949.84 1949.28 818.53 C 1834.50 698.76 1763.75 848.91 1752.22 876.02 C 1666.47 818.34 1562.85 784.50 1451.15 784.50 C 1339.64 784.50 1236.01 818.34 1150.08 876.02 C 1138.54 848.91 1067.98 698.76 953.02 818.53 C 827.09 949.84 760.57 1162.86 670.02 1186.12 C 670.02 1186.12 723.85 1309.36 917.83 1262.45 C 916.10 1279.56 915.33 1296.86 915.33 1314.55 C 915.33 1323.39 915.53 1332.43 915.91 1341.08 C 832.66 1419.52 783.45 1516.99 783.45 1622.54 C 783.45 1819.99 955.71 1988.79 1200.06 2058.77 C 1244.28 2101.07 1339.83 2130.48 1450.95 2130.48 C 1562.08 2130.48 1657.63 2101.07 1701.85 2058.77 C 1946.20 1988.79 2118.46 1819.99 2118.46 1622.54 C 2118.46 1516.99 2069.24 1419.71 1986.00 1341.08 C 1986.38 1332.24 1986.58 1323.39 1986.58 1314.55 C 1986.58 1297.06 1985.61 1279.56 1984.08 1262.45 C 2178.45 1309.36 2232.28 1186.12 2232.28 1186.12 Z" fill="#ffd9cc" fill-rule="nonzero" node-id="58" stroke="none" target-height="1431.721" target-width="1562.26" target-x="670.017" target-y="698.759"></path><path d="M 1702.04 1994.94 C 1657.82 2037.23 1562.27 2066.65 1451.15 2066.65 C 1340.02 2066.65 1244.47 2037.23 1200.25 1994.94 C 969.36 1928.80 802.67 1774.04 785.18 1590.44 C 784.22 1601.01 783.64 1611.58 783.64 1622.35 C 783.64 1819.80 955.90 1988.59 1200.25 2058.58 C 1244.47 2100.87 1340.02 2130.29 1451.15 2130.29 C 1562.27 2130.29 1657.82 2100.87 1702.04 2058.58 C 1946.39 1988.60 2118.66 1819.80 2118.66 1622.35 C 2118.66 1611.58 2118.08 1601.01 2117.12 1590.44 C 2099.81 1774.04 1933.13 1928.80 1702.04 1994.94 L 1702.04 1994.94 Z" fill="#f2b9aa" fill-rule="nonzero" node-id="60" stroke="none" target-height="539.8511" target-width="1335.015" target-x="783.64" target-y="1590.436"></path><path d="M 987.81 845.64 C 912.64 907.74 934.56 1136.71 820.36 1183.62 C 820.36 1183.62 893.03 1230.34 957.05 1183.62 C 1021.08 1136.91 1106.05 892.17 1106.05 892.17 C 1106.05 892.17 1062.99 783.35 987.81 845.64 Z M 1914.48 845.64 C 1839.31 783.54 1796.44 892.36 1796.44 892.36 C 1796.44 892.36 1881.41 1137.10 1945.43 1183.82 C 2009.45 1230.54 2082.13 1183.82 2082.13 1183.82 C 1967.73 1136.71 1989.65 907.74 1914.48 845.64 Z" fill="#ffa094" fill-rule="nonzero" node-id="62" stroke="none" target-height="447.18402" target-width="1261.7649" target-x="820.361" target-y="783.352"></path><path d="M 1187.95 1706.17 C 1187.95 1809.06 1305.79 1892.47 1451.15 1892.47 C 1596.51 1892.47 1714.34 1809.06 1714.34 1706.17 L 1714.34 1706.17 C 1714.34 1603.29 1596.51 1519.88 1451.15 1519.88 C 1305.79 1519.88 1187.95 1603.29 1187.95 1706.17 Z" fill="#e86b62" fill-rule="nonzero" node-id="64" stroke="none" target-height="372.589" target-width="526.391" target-x="1187.952" target-y="1519.879"></path><path d="M 1451.15 1853.63 C 1315.03 1853.63 1203.14 1780.58 1189.30 1686.76 C 1188.34 1693.10 1187.95 1699.64 1187.95 1706.17 C 1187.95 1809.03 1305.80 1892.47 1451.15 1892.47 C 1596.49 1892.47 1714.34 1809.03 1714.34 1706.17 C 1714.34 1699.64 1713.77 1693.10 1713.00 1686.76 C 1699.35 1780.58 1587.26 1853.63 1451.15 1853.63 Z" fill="#d35854" fill-rule="nonzero" node-id="66" stroke="none" target-height="205.71204" target-width="526.391" target-x="1187.951" target-y="1686.756"></path><path d="M 1288.31 1713.29 C 1288.31 1745.46 1314.22 1771.54 1346.18 1771.54 C 1378.14 1771.54 1404.05 1745.46 1404.05 1713.29 C 1404.05 1681.12 1378.14 1655.03 1346.18 1655.03 C 1314.22 1655.03 1288.31 1681.12 1288.31 1713.29 L 1288.31 1713.29 Z" fill="#992e2b" fill-rule="nonzero" node-id="68" stroke="none" target-height="116.50708" target-width="115.73706" target-x="1288.308" target-y="1655.033"></path><path d="M 1498.25 1713.29 C 1498.25 1745.46 1524.16 1771.54 1556.12 1771.54 C 1588.08 1771.54 1613.99 1745.46 1613.99 1713.29 C 1613.99 1681.12 1588.08 1655.03 1556.12 1655.03 C 1524.16 1655.03 1498.25 1681.12 1498.25 1713.29 L 1498.25 1713.29 Z" fill="#992e2b" fill-rule="nonzero" node-id="70" stroke="none" target-height="116.50708" target-width="115.73706" target-x="1498.25" target-y="1655.033"></path><path d="M 1102.40 1311.09 C 1102.38 1351.33 1134.82 1383.97 1174.85 1383.99 C 1214.87 1384.01 1247.34 1351.40 1247.36 1311.15 C 1247.36 1311.13 1247.36 1311.11 1247.36 1311.09 C 1247.38 1270.85 1214.94 1238.21 1174.91 1238.19 C 1134.88 1238.18 1102.42 1270.78 1102.40 1311.03 C 1102.40 1311.05 1102.40 1311.07 1102.40 1311.09 Z" fill="#ba7565" fill-rule="nonzero" node-id="72" stroke="none" target-height="145.83093" target-width="144.99695" target-x="1102.38" target-y="1238.176"></path><path d="M 1643.40 1311.09 C 1643.40 1351.33 1675.85 1383.95 1715.88 1383.95 C 1755.91 1383.95 1788.36 1351.33 1788.36 1311.09 C 1788.36 1270.85 1755.91 1238.23 1715.88 1238.23 C 1675.85 1238.23 1643.40 1270.85 1643.40 1311.09 Z" fill="#ba7565" fill-rule="nonzero" node-id="74" stroke="none" target-height="145.729" target-width="144.95801" target-x="1643.402" target-y="1238.226"></path></svg>