<?xml version="1.0" standalone="no"?><!DOCTYPE svg PUBLIC "-//W3C//DTD SVG 1.1//EN" "http://www.w3.org/Graphics/SVG/1.1/DTD/svg11.dtd"><svg height="2903" node-id="1" sillyvg="true" template-height="2903" template-width="2903" version="1.1" viewBox="0 0 2903 2903" width="2903" xmlns="http://www.w3.org/2000/svg" xmlns:xlink="http://www.w3.org/1999/xlink"><defs node-id="31"></defs><g node-id="99"><path d="M 1451.34 2807.30 C 1268.29 2807.30 1090.71 2771.44 923.54 2700.73 C 843.19 2666.75 765.69 2624.69 693.20 2575.71 C 621.41 2527.21 553.89 2471.50 492.53 2410.15 C 431.18 2348.79 375.47 2281.27 326.96 2209.47 C 277.99 2136.99 235.93 2059.49 201.94 1979.14 C 131.24 1811.97 95.38 1634.39 95.38 1451.34 C 95.38 1268.29 131.24 1090.71 201.94 923.54 C 235.93 843.19 277.99 765.69 326.96 693.20 C 375.47 621.40 431.18 553.89 492.53 492.53 C 553.89 431.17 621.41 375.47 693.20 326.96 C 765.69 277.99 843.19 235.93 923.54 201.94 C 1090.71 131.23 1268.29 95.38 1451.34 95.38 C 1634.39 95.38 1811.97 131.23 1979.14 201.94 C 2059.49 235.93 2136.99 277.99 2209.48 326.96 C 2281.28 375.47 2348.79 431.18 2410.15 492.53 C 2471.50 553.89 2527.21 621.40 2575.72 693.20 C 2624.69 765.69 2666.75 843.19 2700.74 923.54 C 2771.45 1090.71 2807.30 1268.29 2807.30 1451.34 C 2807.30 1634.39 2771.45 1811.97 2700.74 1979.14 C 2666.75 2059.49 2624.69 2136.99 2575.72 2209.47 C 2527.21 2281.27 2471.50 2348.79 2410.15 2410.15 C 2348.79 2471.50 2281.28 2527.21 2209.48 2575.71 C 2136.99 2624.69 2059.49 2666.75 1979.14 2700.74 C 1811.97 2771.44 1634.39 2807.30 1451.34 2807.30 Z" fill="#c8c7ce" fill-rule="nonzero" group-id="1" node-id="35" stroke="none" target-height="2711.916" target-width="2711.916" target-x="95.382" target-y="95.381"></path><path d="M 1451.34 105.38 C 2194.69 105.38 2797.30 707.99 2797.30 1451.34 C 2797.30 2194.69 2194.69 2797.30 1451.34 2797.30 C 707.99 2797.30 105.38 2194.69 105.38 1451.34 C 105.38 707.99 707.99 105.38 1451.34 105.38 M 1451.34 85.38 C 1358.67 85.38 1266.06 94.72 1176.07 113.13 C 1088.36 131.08 1002.09 157.86 919.64 192.74 C 838.70 226.97 760.63 269.35 687.61 318.68 C 615.28 367.54 547.27 423.65 485.46 485.46 C 423.65 547.27 367.54 615.28 318.68 687.61 C 269.35 760.63 226.97 838.70 192.74 919.64 C 157.87 1002.08 131.08 1088.36 113.13 1176.07 C 94.72 1266.06 85.38 1358.67 85.38 1451.34 C 85.38 1544.01 94.72 1636.62 113.13 1726.61 C 131.08 1814.32 157.86 1900.60 192.74 1983.04 C 226.97 2063.98 269.35 2142.05 318.68 2215.07 C 367.54 2287.40 423.66 2355.41 485.46 2417.22 C 547.27 2479.03 615.28 2535.14 687.61 2584.00 C 760.63 2633.34 838.70 2675.71 919.64 2709.95 C 1002.09 2744.82 1088.36 2771.60 1176.07 2789.55 C 1266.06 2807.96 1358.67 2817.30 1451.34 2817.30 C 1544.01 2817.30 1636.62 2807.96 1726.61 2789.55 C 1814.32 2771.60 1900.60 2744.82 1983.04 2709.95 C 2063.98 2675.71 2142.05 2633.34 2215.07 2584.00 C 2287.40 2535.14 2355.41 2479.03 2417.22 2417.22 C 2479.03 2355.41 2535.14 2287.40 2584.00 2215.07 C 2633.34 2142.05 2675.71 2063.98 2709.95 1983.04 C 2744.82 1900.60 2771.60 1814.32 2789.55 1726.61 C 2807.96 1636.62 2817.30 1544.01 2817.30 1451.34 C 2817.30 1358.67 2807.96 1266.06 2789.55 1176.07 C 2771.60 1088.36 2744.82 1002.09 2709.95 919.64 C 2675.71 838.70 2633.34 760.63 2584.00 687.61 C 2535.14 615.28 2479.03 547.27 2417.22 485.46 C 2355.41 423.65 2287.40 367.54 2215.07 318.68 C 2142.05 269.34 2063.98 226.97 1983.04 192.74 C 1900.60 157.86 1814.32 131.08 1726.61 113.13 C 1636.62 94.72 1544.00 85.38 1451.34 85.38 L 1451.34 85.38 Z" fill="#1e6677" fill-rule="nonzero" group-id="1" node-id="37" stroke="none" target-height="2731.915" target-width="2731.916" target-x="85.383" target-y="85.383"></path></g><g node-id="100"><path d="M 1451.34 2655.67 C 1288.78 2655.67 1131.05 2623.82 982.54 2561.01 C 911.17 2530.82 842.34 2493.46 777.95 2449.96 C 714.19 2406.89 654.24 2357.42 599.75 2302.93 C 545.26 2248.45 495.80 2188.49 452.72 2124.73 C 409.22 2060.34 371.86 1991.51 341.67 1920.14 C 278.86 1771.63 247.01 1613.90 247.01 1451.34 C 247.01 1288.78 278.86 1131.06 341.67 982.55 C 371.86 911.17 409.22 842.34 452.72 777.95 C 495.80 714.19 545.26 654.24 599.75 599.75 C 654.24 545.26 714.19 495.80 777.95 452.72 C 842.34 409.22 911.17 371.86 982.54 341.67 C 1131.05 278.86 1288.78 247.01 1451.34 247.01 C 1613.90 247.01 1771.63 278.86 1920.14 341.67 C 1991.51 371.86 2060.34 409.22 2124.73 452.72 C 2188.49 495.80 2248.45 545.26 2302.93 599.75 C 2357.42 654.24 2406.89 714.19 2449.96 777.95 C 2493.46 842.34 2530.82 911.17 2561.01 982.55 C 2623.82 1131.06 2655.67 1288.78 2655.67 1451.34 C 2655.67 1613.90 2623.82 1771.63 2561.01 1920.14 C 2530.82 1991.51 2493.46 2060.34 2449.96 2124.73 C 2406.89 2188.49 2357.42 2248.45 2302.93 2302.93 C 2248.45 2357.42 2188.49 2406.89 2124.73 2449.96 C 2060.34 2493.46 1991.51 2530.82 1920.14 2561.01 C 1771.63 2623.82 1613.90 2655.67 1451.34 2655.67 Z" fill="#e4e4ec" fill-rule="nonzero" group-id="2" node-id="42" stroke="none" target-height="2408.6619" target-width="2408.66" target-x="247.01" target-y="247.009"></path><path d="M 1451.34 297.01 C 2088.86 297.01 2605.67 813.82 2605.67 1451.34 C 2605.67 2088.86 2088.86 2605.67 1451.34 2605.67 C 813.82 2605.67 297.01 2088.86 297.01 1451.34 C 297.01 813.82 813.82 297.01 1451.34 297.01 M 1451.34 197.01 C 1366.30 197.01 1281.28 205.58 1198.65 222.49 C 1118.07 238.98 1038.81 263.58 963.07 295.62 C 888.72 327.07 817.02 365.98 749.96 411.29 C 683.57 456.14 621.13 507.66 564.39 564.39 C 507.66 621.13 456.15 683.57 411.29 749.96 C 365.98 817.02 327.07 888.72 295.62 963.07 C 263.59 1038.81 238.98 1118.07 222.49 1198.66 C 205.58 1281.29 197.01 1366.30 197.01 1451.34 C 197.01 1536.38 205.58 1621.40 222.49 1704.03 C 238.98 1784.61 263.59 1863.87 295.62 1939.62 C 327.07 2013.96 365.98 2085.66 411.29 2152.72 C 456.15 2219.12 507.66 2281.55 564.39 2338.29 C 621.13 2395.02 683.57 2446.53 749.96 2491.39 C 817.02 2536.70 888.72 2575.61 963.07 2607.06 C 1038.81 2639.09 1118.07 2663.70 1198.65 2680.19 C 1281.29 2697.10 1366.30 2705.67 1451.34 2705.67 C 1536.38 2705.67 1621.40 2697.10 1704.03 2680.19 C 1784.61 2663.70 1863.87 2639.09 1939.62 2607.06 C 2013.96 2575.61 2085.66 2536.70 2152.72 2491.39 C 2219.12 2446.53 2281.55 2395.02 2338.29 2338.29 C 2395.02 2281.55 2446.53 2219.12 2491.39 2152.72 C 2536.70 2085.66 2575.61 2013.96 2607.06 1939.62 C 2639.09 1863.87 2663.70 1784.61 2680.19 1704.03 C 2697.10 1621.40 2705.67 1536.38 2705.67 1451.34 C 2705.67 1366.30 2697.10 1281.29 2680.19 1198.66 C 2663.70 1118.08 2639.09 1038.81 2607.06 963.07 C 2575.61 888.72 2536.70 817.02 2491.39 749.96 C 2446.53 683.57 2395.02 621.13 2338.29 564.40 C 2281.55 507.66 2219.12 456.15 2152.72 411.29 C 2085.66 365.98 2013.96 327.07 1939.62 295.62 C 1863.87 263.59 1784.61 238.98 1704.03 222.49 C 1621.40 205.58 1536.38 197.01 1451.34 197.01 L 1451.34 197.01 Z" fill="#7d7f88" fill-rule="nonzero" group-id="2" node-id="44" stroke="none" target-height="2508.661" target-width="2508.658" target-x="197.011" target-y="197.009"></path></g><g node-id="101"><path d="M 246.61 1451.34 L 1451.32 246.63 L 2656.03 1451.34 L 1451.32 2656.05 Z" fill="#3e94af" fill-rule="nonzero" group-id="3" node-id="49" stroke="none" target-height="2409.4263" target-width="2409.4263" target-x="246.60706" target-y="246.62671"></path></g><g node-id="102"><g node-id="106"><path d="M 1451.34 2797.13 L 1057.17 2402.96 L 499.72 2402.96 L 499.72 1845.52 L 105.55 1451.34 L 499.72 1057.17 L 499.72 499.72 L 1057.17 499.72 L 1451.34 105.55 L 1845.52 499.72 L 2402.96 499.72 L 2402.96 1057.16 L 2797.13 1451.34 L 2402.96 1845.51 L 2402.96 2402.96 L 1845.51 2402.96 L 1451.34 2797.13 Z M 529.72 2372.96 L 1069.59 2372.96 L 1451.34 2754.71 L 1833.09 2372.96 L 2372.96 2372.96 L 2372.96 1833.09 L 2754.71 1451.34 L 2372.96 1069.59 L 2372.96 529.72 L 1833.09 529.72 L 1451.34 147.97 L 1069.60 529.72 L 529.72 529.72 L 529.72 1069.59 L 147.97 1451.34 L 529.72 1833.09 L 529.72 2372.96 Z" fill="#3e94af" fill-rule="nonzero" group-id="4,8" node-id="56" stroke="none" target-height="2691.5881" target-width="2691.5881" target-x="105.546" target-y="105.546"></path></g></g><g node-id="103"><path d="M 1076.39 1145.99 C 973.35 944.34 845.00 867.98 777.67 840.41 C 762.13 834.01 749.60 822.14 742.39 806.99 C 736.37 794.21 734.60 779.26 737.40 764.89 C 743.68 733.64 770.36 711.83 802.27 711.83 L 802.80 711.83 C 881.28 712.37 953.39 729.21 1017.16 761.90 C 1068.27 788.17 1113.87 824.45 1152.71 869.73 C 1186.71 909.48 1209.06 949.18 1221.84 975.49 C 1235.62 1003.89 1241.87 1023.92 1242.50 1026.48 L 1250.52 1052.97 L 1232.37 1074.10 L 1161.77 1156.09 L 1111.52 1214.57 L 1076.39 1145.99 Z M 1713.34 1155.91 L 1642.75 1073.93 L 1624.60 1052.79 L 1632.64 1026.23 L 1632.80 1025.75 C 1637.20 1012.12 1662.23 940.52 1722.76 869.73 C 1761.32 824.59 1806.93 788.31 1858.31 761.90 C 1922.25 729.21 1994.31 712.37 2072.48 711.83 L 2073.03 711.83 C 2104.94 711.83 2131.61 733.64 2137.90 764.88 C 2140.82 778.98 2139.05 793.94 2132.90 806.98 C 2125.93 822.04 2113.40 833.92 2097.63 840.41 C 2030.26 868.17 1901.82 944.77 1798.55 1145.82 L 1763.61 1214.40 L 1713.34 1155.91 Z" fill="#1a6172" fill-rule="nonzero" group-id="5" node-id="62" stroke="none" target-height="502.73395" target-width="1406.228" target-x="734.597" target-y="711.831"></path><path d="M 2073.03 714.33 C 2103.79 714.33 2129.40 735.32 2135.45 765.37 C 2138.29 779.06 2136.51 793.47 2130.64 805.91 C 2123.89 820.50 2111.79 831.88 2096.68 838.10 C 2028.92 866.02 1900.00 942.84 1796.33 1144.68 L 1763.07 1209.94 L 1715.24 1154.28 L 1644.64 1072.30 L 1627.39 1052.20 L 1635.04 1026.95 C 1636.10 1023.75 1659.58 947.46 1724.66 871.35 C 1763.25 826.18 1808.60 790.26 1859.45 764.12 C 1922.76 731.76 1994.43 714.87 2072.49 714.33 L 2073.03 714.33 M 802.80 714.33 C 880.87 714.87 952.53 731.58 1016.02 764.12 C 1066.88 790.26 1112.22 826.36 1150.81 871.35 C 1215.90 947.46 1239.37 1023.93 1240.08 1027.13 L 1247.73 1052.38 L 1230.48 1072.48 L 1159.88 1154.46 L 1112.05 1210.12 L 1078.61 1144.85 C 975.29 942.66 846.37 865.84 778.62 838.10 C 763.50 831.88 751.59 820.50 744.65 805.91 C 738.78 793.47 737.18 779.06 739.85 765.37 C 745.90 735.31 771.68 714.33 802.27 714.33 L 802.80 714.33 M 2073.03 709.33 L 2072.49 709.33 C 1993.90 709.87 1921.47 726.81 1857.18 759.67 C 1805.50 786.24 1759.64 822.72 1720.86 868.11 C 1660.02 939.25 1634.85 1011.27 1630.42 1024.98 L 1630.30 1025.37 L 1630.27 1025.44 L 1630.25 1025.50 L 1622.61 1050.76 L 1621.81 1053.38 L 1623.60 1055.46 L 1640.85 1075.56 L 1711.45 1157.54 L 1759.28 1213.20 L 1764.14 1218.85 L 1767.53 1212.21 L 1800.78 1146.94 C 1903.68 946.62 2031.53 870.35 2098.58 842.72 C 2114.93 835.99 2127.93 823.66 2135.18 808.01 C 2141.55 794.51 2143.38 779.00 2140.34 764.35 C 2133.82 731.97 2106.14 709.33 2073.03 709.33 L 2073.03 709.33 Z M 802.82 709.33 L 802.80 709.33 L 802.27 709.33 C 769.15 709.33 741.47 731.97 734.95 764.38 C 732.04 779.31 733.88 794.80 740.13 808.05 C 747.61 823.78 760.60 836.09 776.71 842.72 C 843.74 870.16 971.49 946.20 1074.16 1147.13 L 1107.60 1212.40 L 1110.99 1219.02 L 1115.84 1213.38 L 1163.67 1157.71 L 1234.27 1075.74 L 1251.52 1055.64 L 1253.31 1053.56 L 1252.51 1050.93 L 1244.90 1025.79 C 1244.09 1022.66 1237.75 1002.54 1224.09 974.40 C 1211.25 947.96 1188.78 908.06 1154.61 868.10 C 1115.56 822.57 1069.70 786.09 1018.30 759.67 C 954.18 726.81 881.69 709.87 802.84 709.33 L 802.82 709.33 L 802.82 709.33 Z" fill="#1a6172" fill-rule="nonzero" group-id="5" node-id="64" stroke="none" target-height="509.68805" target-width="1411.342" target-x="732.042" target-y="709.331"></path></g><path d="M 2073.03 763.06 C 1765.21 765.19 1682.16 1041.00 1682.16 1041.00 L 1752.76 1122.98 C 1861.23 910.83 1997.45 826.36 2077.83 793.29 C 2093.30 786.89 2089.74 762.88 2073.03 763.06 Z M 802.45 763.06 C 785.73 762.88 782.17 787.06 797.64 793.29 C 877.85 826.18 1014.06 910.83 1122.71 1122.98 L 1193.31 1041.00 C 1193.31 1041.00 1110.27 765.19 802.45 763.06 Z" fill="#f4e5c6" fill-rule="nonzero" node-id="67" stroke="none" target-height="360.10193" target-width="1311.125" target-x="782.174" target-y="762.879"></path><path d="M 1451.34 2190.85 C 1376.07 2190.85 1303.13 2177.21 1234.54 2150.31 C 1167.98 2124.25 1108.12 2086.93 1056.64 2039.39 C 1004.98 1991.82 964.34 1936.09 935.86 1873.74 C 906.32 1809.13 891.35 1740.52 891.35 1669.80 C 891.35 1579.33 916.66 1490.22 964.55 1412.07 C 963.41 1399.93 962.84 1386.97 962.84 1373.54 C 962.84 1371.82 962.88 1370.08 962.93 1368.41 C 962.95 1367.49 962.97 1366.57 962.99 1365.65 C 925.27 1361.50 888.74 1351.22 854.38 1335.08 C 817.88 1318.00 783.32 1294.46 751.67 1265.12 C 697.22 1214.68 669.39 1163.69 669.15 1163.22 L 654.42 1136.37 L 671.44 1110.75 C 716.10 1043.94 786.18 1008.63 874.11 1008.63 C 956.01 1008.63 1037.97 1038.72 1092.84 1064.31 C 1132.62 1024.31 1181.04 990.40 1232.98 966.18 C 1301.00 934.40 1374.41 918.29 1451.16 918.29 C 1527.92 918.29 1601.33 934.40 1669.35 966.18 C 1721.29 990.40 1769.71 1024.31 1809.49 1064.31 C 1864.36 1038.72 1946.32 1008.63 2028.22 1008.63 C 2116.27 1008.63 2186.35 1043.94 2230.89 1110.75 L 2248.27 1136.36 L 2233.49 1163.31 L 2233.27 1163.69 C 2226.11 1176.24 2199.04 1220.64 2151.02 1265.12 C 2118.97 1294.65 2084.41 1318.18 2048.30 1335.08 C 2013.49 1351.26 1976.98 1361.54 1939.76 1365.64 C 1939.85 1368.30 1939.85 1370.96 1939.85 1373.54 C 1939.85 1386.97 1939.27 1399.92 1938.14 1412.07 C 1986.03 1490.22 2011.34 1579.33 2011.34 1669.80 C 2011.34 1740.52 1996.36 1809.13 1966.83 1873.74 C 1938.47 1935.81 1897.83 1991.54 1846.04 2039.39 C 1794.56 2086.93 1734.70 2124.25 1668.14 2150.31 C 1599.55 2177.21 1526.61 2190.85 1451.34 2190.85 Z" fill="#1a6172" fill-rule="nonzero" group-id="6" node-id="71" stroke="none" target-height="1272.5569" target-width="1593.854" target-x="654.419" target-y="918.291"></path><path d="M 1451.16 920.79 C 1527.45 920.79 1600.54 936.79 1668.29 968.45 C 1720.93 992.99 1768.94 1026.78 1808.95 1067.32 C 1860.88 1042.96 1944.81 1011.13 2028.21 1011.13 C 2115.35 1011.13 2184.70 1045.98 2228.80 1112.13 L 2245.34 1136.49 L 2231.29 1162.10 C 2230.05 1164.24 2202.49 1214.03 2149.31 1263.29 C 2117.66 1292.45 2083.34 1315.92 2047.24 1332.82 C 2012.03 1349.18 1975.05 1359.49 1937.17 1363.40 C 1937.34 1366.78 1937.34 1370.16 1937.34 1373.54 C 1937.34 1386.52 1936.81 1399.68 1935.57 1412.66 C 1983.58 1490.73 2008.83 1579.29 2008.83 1669.80 C 2008.83 1740.04 1993.89 1808.51 1964.55 1872.70 C 1936.28 1934.59 1895.73 1990.07 1844.34 2037.55 C 1793.13 2084.85 1733.55 2122.02 1667.23 2147.98 C 1598.76 2174.83 1526.21 2188.35 1451.34 2188.35 C 1376.48 2188.35 1303.92 2174.83 1235.46 2147.98 C 1169.13 2122.02 1109.56 2084.85 1058.34 2037.55 C 1006.77 1990.07 966.40 1934.59 938.13 1872.70 C 908.79 1808.51 893.85 1740.22 893.85 1669.80 C 893.85 1579.29 919.10 1490.73 967.12 1412.66 C 965.87 1399.68 965.34 1386.52 965.34 1373.54 C 965.34 1370.16 965.52 1366.78 965.52 1363.40 C 927.64 1359.49 890.65 1349.36 855.44 1332.82 C 819.34 1315.92 785.02 1292.63 753.37 1263.29 C 700.20 1214.03 672.46 1164.24 671.39 1162.10 L 657.34 1136.49 L 673.52 1112.13 C 717.62 1046.16 786.98 1011.13 874.11 1011.13 C 957.51 1011.13 1041.45 1042.96 1093.38 1067.32 C 1133.39 1026.78 1181.40 992.99 1234.04 968.45 C 1301.79 936.79 1374.87 920.79 1451.16 920.79 M 1451.16 915.79 C 1374.04 915.79 1300.27 931.98 1231.92 963.92 C 1205.48 976.24 1179.97 991.01 1156.09 1007.79 C 1133.23 1023.87 1111.78 1041.86 1092.30 1061.31 C 1060.36 1046.50 1028.30 1034.39 996.94 1025.29 C 953.15 1012.57 911.83 1006.13 874.11 1006.13 C 785.31 1006.13 714.51 1041.82 669.36 1109.36 L 653.17 1133.73 L 651.50 1136.25 L 652.96 1138.90 L 667.00 1164.51 L 667.01 1164.51 C 668.80 1167.80 696.81 1217.70 749.97 1266.95 C 781.81 1296.47 816.58 1320.15 853.32 1337.35 C 887.24 1353.28 923.26 1363.54 960.44 1367.88 C 960.44 1368.03 960.43 1368.18 960.43 1368.34 C 960.38 1370.03 960.34 1371.78 960.34 1373.54 C 960.34 1386.74 960.89 1399.49 961.98 1411.47 C 914.13 1489.85 888.85 1579.14 888.85 1669.80 C 888.85 1740.88 903.90 1809.84 933.58 1874.78 C 962.21 1937.43 1003.04 1993.43 1054.95 2041.23 C 1106.66 2088.98 1166.78 2126.47 1233.63 2152.64 C 1302.51 2179.65 1375.76 2193.35 1451.34 2193.35 C 1526.92 2193.35 1600.17 2179.65 1669.05 2152.64 C 1735.90 2126.47 1796.02 2088.98 1847.73 2041.22 C 1899.77 1993.14 1940.61 1937.14 1969.10 1874.78 C 1998.78 1809.84 2013.83 1740.88 2013.83 1669.80 C 2013.83 1579.14 1988.55 1489.85 1940.70 1411.47 C 1941.79 1399.49 1942.35 1386.74 1942.35 1373.54 C 1942.35 1371.68 1942.35 1369.78 1942.32 1367.87 C 1979.02 1363.57 2015.00 1353.31 2049.35 1337.35 C 2085.70 1320.34 2120.47 1296.66 2152.70 1266.96 C 2200.99 1222.23 2228.24 1177.56 2235.44 1164.93 L 2235.61 1164.62 L 2235.65 1164.56 L 2235.68 1164.51 L 2249.73 1138.90 L 2251.20 1136.22 L 2249.48 1133.68 L 2232.94 1109.32 C 2187.94 1041.82 2117.14 1006.13 2028.22 1006.13 C 1990.50 1006.13 1949.18 1012.57 1905.39 1025.29 C 1874.03 1034.39 1841.97 1046.50 1810.02 1061.30 C 1790.55 1041.86 1769.10 1023.87 1746.23 1007.79 C 1722.36 991.00 1696.85 976.24 1670.40 963.92 C 1602.05 931.98 1528.29 915.79 1451.16 915.79 L 1451.16 915.79 Z" fill="#1a6172" fill-rule="nonzero" group-id="6" node-id="73" stroke="none" target-height="1277.5569" target-width="1599.698" target-x="651.5" target-y="915.79"></path><path d="M 2187.73 1138.98 C 2084.94 984.99 1853.23 1097.37 1797.57 1127.60 C 1717.73 1031.58 1592.18 969.51 1450.98 969.51 C 1309.79 969.51 1184.24 1031.40 1104.40 1127.60 C 1048.74 1097.55 817.03 984.99 714.24 1138.98 C 714.24 1138.98 818.10 1328.19 1018.51 1316.10 C 1015.66 1334.77 1014.06 1353.98 1014.06 1373.54 C 1014.06 1390.61 1015.31 1407.68 1017.44 1424.22 C 969.96 1495.71 942.58 1579.82 942.58 1669.80 C 942.58 1929.43 1170.19 2139.80 1450.81 2139.80 C 1731.42 2139.80 1959.04 1929.43 1959.04 1669.80 C 1959.04 1579.82 1931.65 1495.71 1884.17 1424.22 C 1886.49 1407.68 1887.55 1390.79 1887.55 1373.54 C 1887.55 1353.98 1885.95 1334.95 1883.11 1316.10 C 2083.88 1328.19 2187.73 1138.98 2187.73 1138.98 Z" fill="#dfeaef" fill-rule="nonzero" node-id="76" stroke="none" target-height="1170.2861" target-width="1473.4841" target-x="714.243" target-y="969.514"></path><path d="M 1014.24 1316.28 C 1014.59 1299.74 1016.02 1283.56 1018.51 1267.55 C 865.40 1276.80 768.66 1168.50 731.49 1116.76 C 725.45 1123.51 719.58 1130.80 714.24 1138.81 C 714.24 1138.98 816.67 1325.35 1014.24 1316.28 Z M 1887.91 1380.65 L 1887.91 1373.54 C 1887.91 1365.36 1887.55 1357.36 1887.20 1349.36 C 1886.66 1358.25 1885.77 1366.96 1884.53 1375.67 C 1885.60 1377.27 1886.84 1379.05 1887.91 1380.65 Z M 1450.98 2091.08 C 1179.09 2091.08 956.98 1893.69 943.28 1645.44 C 942.93 1653.44 942.57 1661.62 942.57 1669.62 C 942.57 1929.25 1170.19 2139.62 1450.81 2139.62 C 1731.42 2139.62 1959.04 1929.25 1959.04 1669.62 C 1959.04 1661.44 1958.86 1653.44 1958.33 1645.44 C 1944.99 1893.69 1722.88 2091.08 1450.98 2091.08 Z M 1883.46 1267.56 C 1885.95 1283.56 1887.38 1299.74 1887.73 1316.28 C 2085.30 1325.35 2187.73 1138.99 2187.73 1138.99 C 2182.39 1130.81 2176.52 1123.51 2170.48 1116.93 C 2133.49 1168.33 2036.57 1276.80 1883.46 1267.56 Z M 1014.24 1380.65 C 1015.31 1378.88 1016.37 1377.27 1017.62 1375.50 C 1016.37 1366.78 1015.66 1358.07 1014.95 1349.18 C 1014.42 1357.18 1014.24 1365.18 1014.24 1373.36 L 1014.24 1380.65 Z" fill="#b6d3dd" fill-rule="nonzero" node-id="78" stroke="none" target-height="1022.86707" target-width="1473.4851" target-x="714.242" target-y="1116.756"></path><path d="M 1801.84 1446.09 C 1801.84 1328.19 1705.10 1232.52 1585.78 1232.52 C 1534.74 1232.52 1487.97 1249.95 1450.98 1279.29 C 1414.00 1250.13 1367.23 1232.52 1316.19 1232.52 C 1196.87 1232.52 1100.13 1328.19 1100.13 1446.09 C 1100.13 1562.22 1194.02 1656.82 1310.68 1659.49 C 1291.29 1720.13 1278.13 1785.57 1279.20 1850.47 C 1283.29 2080.58 1385.36 2104.95 1450.63 2104.95 C 1515.89 2104.95 1617.96 2080.76 1622.05 1850.47 C 1623.12 1785.57 1610.14 1720.13 1590.58 1659.49 C 1707.95 1656.64 1801.84 1562.22 1801.84 1446.09 Z" fill="#ffffff" fill-rule="nonzero" node-id="80" stroke="none" target-height="872.4241" target-width="701.7119" target-x="1100.128" target-y="1232.523"></path><path d="M 1473.21 1137.22 C 1455.41 1137.22 1439.22 1132.12 1426.31 1122.46 L 1425.91 1122.46 C 1423.66 1122.46 1421.60 1122.30 1419.42 1122.13 L 1419.06 1122.10 C 1418.33 1122.10 1417.51 1122.09 1416.48 1121.90 C 1407.68 1121.04 1387.51 1119.02 1368.68 1110.79 C 1358.46 1115.47 1347.98 1117.84 1337.53 1117.84 C 1334.21 1117.84 1330.60 1117.54 1326.49 1116.92 C 1318.02 1115.45 1305.49 1111.67 1292.99 1101.99 C 1283.00 1105.66 1272.74 1107.52 1262.49 1107.52 C 1243.77 1107.52 1208.65 1100.96 1183.85 1056.99 C 1174.37 1040.37 1168.35 1026.01 1165.44 1013.10 C 1161.57 995.83 1162.94 980.05 1169.52 966.18 C 1162.45 933.45 1165.80 906.00 1179.47 884.59 C 1188.32 870.75 1209.59 847.39 1252.58 846.27 C 1254.96 846.09 1257.35 846.09 1259.46 846.09 C 1266.36 846.09 1272.22 846.33 1277.77 846.85 C 1299.30 814.67 1326.50 809.82 1340.91 809.82 C 1354.28 809.82 1367.84 813.95 1380.13 821.76 C 1383.99 824.29 1387.88 827.12 1391.73 830.20 C 1403.39 822.57 1416.14 818.71 1429.65 818.71 C 1442.16 818.71 1460.80 822.21 1478.62 838.91 C 1479.30 839.49 1479.91 840.10 1480.50 840.70 C 1480.72 840.92 1480.94 841.13 1481.15 841.34 C 1486.64 839.77 1492.40 838.98 1498.29 838.98 C 1507.50 838.98 1516.12 840.84 1523.93 844.50 C 1534.25 838.24 1545.30 835.07 1556.80 835.07 C 1558.82 835.07 1560.94 835.22 1562.98 835.38 C 1577.75 829.27 1591.59 826.17 1604.10 826.17 C 1625.20 826.17 1643.81 834.38 1656.50 849.28 C 1662.18 855.84 1666.47 863.38 1669.27 871.70 C 1697.86 885.58 1708.74 904.96 1712.84 918.84 C 1714.54 924.29 1715.49 930.24 1715.60 936.09 C 1725.31 945.66 1732.04 956.35 1735.59 967.89 C 1741.58 987.36 1737.94 1008.19 1725.62 1025.05 C 1719.65 1033.47 1712.40 1040.49 1704.06 1045.92 C 1704.06 1057.51 1701.56 1067.60 1696.43 1076.72 C 1687.37 1093.02 1670.68 1103.86 1651.82 1105.73 L 1651.70 1105.74 L 1651.58 1105.74 C 1651.15 1105.74 1650.37 1105.85 1649.54 1105.96 C 1648.76 1106.07 1647.90 1106.18 1647.00 1106.27 L 1646.72 1106.30 C 1639.60 1107.19 1629.86 1108.41 1619.39 1108.41 C 1611.31 1108.41 1603.59 1107.64 1596.41 1106.12 C 1576.45 1122.74 1555.83 1131.17 1535.10 1131.17 C 1529.56 1131.17 1523.78 1130.45 1517.45 1128.96 C 1506.43 1132.79 1490.04 1137.22 1473.21 1137.22 Z" fill="#1a6172" fill-rule="nonzero" group-id="7" node-id="84" stroke="none" target-height="327.40106" target-width="580.00696" target-x="1161.572" target-y="809.816"></path><path d="M 1340.91 812.32 C 1353.89 812.32 1367.05 816.40 1378.79 823.87 C 1383.41 826.90 1387.68 830.10 1391.59 833.30 C 1405.28 823.87 1418.62 821.21 1429.64 821.21 C 1441.56 821.21 1459.70 824.59 1476.95 840.77 C 1478.19 841.84 1479.26 843.08 1480.51 844.15 C 1486.20 842.37 1492.24 841.48 1498.29 841.48 C 1507.54 841.48 1516.25 843.43 1524.07 847.35 C 1532.79 841.84 1543.63 837.57 1556.79 837.57 C 1558.93 837.57 1561.24 837.75 1563.37 837.92 C 1575.29 832.94 1589.69 828.67 1604.10 828.67 C 1624.37 828.67 1642.33 836.50 1654.60 850.90 C 1660.29 857.48 1664.56 865.13 1667.23 873.49 C 1695.32 886.83 1706.35 905.68 1710.44 919.55 C 1712.22 925.24 1713.11 931.28 1713.11 937.15 C 1722.89 946.58 1729.64 957.07 1733.20 968.63 C 1738.89 987.12 1735.69 1007.04 1723.60 1023.58 C 1717.55 1032.11 1710.08 1039.22 1701.55 1044.56 C 1701.72 1054.87 1699.94 1065.37 1694.26 1075.50 C 1685.54 1091.15 1669.54 1101.46 1651.58 1103.24 C 1650.51 1103.24 1648.73 1103.60 1646.77 1103.78 C 1639.66 1104.66 1629.88 1105.91 1619.39 1105.91 C 1610.67 1105.91 1602.85 1105.02 1595.74 1103.42 C 1576.00 1120.14 1555.55 1128.67 1535.10 1128.67 C 1529.05 1128.67 1523.18 1127.78 1517.32 1126.36 C 1504.69 1130.80 1488.86 1134.72 1473.21 1134.72 C 1455.25 1134.72 1439.43 1129.38 1427.15 1119.96 L 1425.91 1119.96 C 1423.60 1119.96 1421.46 1119.78 1419.15 1119.60 C 1418.44 1119.60 1417.73 1119.60 1416.84 1119.42 C 1405.99 1118.36 1386.79 1116.22 1368.65 1108.04 C 1358.51 1112.84 1348.20 1115.33 1337.53 1115.33 C 1333.97 1115.33 1330.42 1114.98 1326.86 1114.44 C 1318.68 1113.02 1306.05 1109.29 1293.43 1099.15 C 1284.18 1102.71 1273.69 1105.02 1262.49 1105.02 C 1244.35 1105.02 1210.20 1098.62 1186.02 1055.76 C 1176.60 1039.22 1170.73 1025.17 1167.88 1012.55 C 1163.26 991.92 1167.17 976.63 1172.15 966.49 C 1165.04 934.30 1168.06 907.10 1181.57 885.93 C 1190.11 872.60 1210.74 849.83 1252.70 848.77 C 1255.02 848.59 1257.33 848.59 1259.46 848.59 C 1265.51 848.59 1272.09 848.77 1279.03 849.48 C 1299.83 817.47 1326.15 812.32 1340.91 812.32 M 1340.91 807.32 C 1326.18 807.32 1298.57 812.18 1276.52 844.23 C 1271.33 843.79 1265.83 843.59 1259.46 843.59 C 1257.33 843.59 1254.91 843.59 1252.45 843.77 C 1208.36 844.94 1186.48 869.00 1177.36 883.24 C 1163.43 905.05 1159.92 932.85 1166.90 965.89 C 1160.49 979.92 1159.13 996.39 1163.00 1013.64 C 1165.97 1026.81 1172.08 1041.39 1181.68 1058.24 C 1207.10 1103.29 1243.22 1110.02 1262.49 1110.02 C 1272.60 1110.02 1282.70 1108.26 1292.56 1104.80 C 1305.10 1114.17 1317.56 1117.90 1326.00 1119.37 L 1326.06 1119.38 L 1326.12 1119.39 C 1330.35 1120.02 1334.08 1120.33 1337.53 1120.33 C 1348.00 1120.33 1358.47 1118.04 1368.70 1113.52 C 1387.52 1121.51 1407.31 1123.51 1416.13 1124.38 C 1417.28 1124.58 1418.23 1124.60 1418.96 1124.60 L 1419.23 1124.62 C 1421.32 1124.78 1423.31 1124.94 1425.49 1124.95 C 1438.71 1134.62 1455.17 1139.72 1473.21 1139.72 C 1490.04 1139.72 1506.40 1135.39 1517.58 1131.56 C 1523.83 1132.98 1529.57 1133.67 1535.10 1133.67 C 1556.11 1133.67 1576.95 1125.31 1597.08 1108.81 C 1604.09 1110.20 1611.58 1110.91 1619.39 1110.91 C 1630.01 1110.91 1639.85 1109.68 1647.03 1108.78 L 1647.31 1108.75 C 1648.25 1108.66 1649.12 1108.54 1649.88 1108.44 C 1650.48 1108.36 1651.31 1108.24 1651.58 1108.24 L 1651.81 1108.24 L 1652.07 1108.22 C 1671.74 1106.27 1689.15 1094.95 1698.62 1077.93 C 1703.76 1068.79 1706.36 1058.73 1706.55 1047.27 C 1714.67 1041.79 1721.76 1034.81 1727.65 1026.50 C 1740.43 1009.00 1744.20 987.37 1737.97 967.16 C 1734.39 955.51 1727.70 944.70 1718.07 935.02 C 1717.87 929.28 1716.90 923.47 1715.22 918.09 C 1711.02 903.88 1699.97 884.14 1671.30 869.91 C 1668.39 861.68 1664.05 854.19 1658.38 847.63 C 1645.23 832.20 1625.94 823.68 1604.10 823.68 C 1591.41 823.68 1577.45 826.76 1562.58 832.84 C 1560.68 832.69 1558.71 832.57 1556.79 832.57 C 1545.26 832.57 1534.16 835.63 1523.77 841.68 C 1515.96 838.23 1507.40 836.48 1498.29 836.48 C 1492.67 836.48 1487.17 837.18 1481.89 838.55 C 1481.40 838.07 1480.87 837.55 1480.29 837.05 C 1461.89 819.82 1442.60 816.21 1429.64 816.21 C 1416.23 816.21 1403.54 819.88 1391.88 827.13 C 1388.43 824.43 1384.96 821.94 1381.52 819.69 L 1381.49 819.67 L 1381.47 819.66 C 1368.78 811.58 1354.76 807.32 1340.91 807.32 L 1340.91 807.32 Z" fill="#1a6172" fill-rule="nonzero" group-id="7" node-id="86" stroke="none" target-height="332.40204" target-width="585.063" target-x="1159.134" target-y="807.315"></path><path d="M 1229.23 982.50 C 1229.23 982.50 1191.00 898.92 1254.13 897.14 C 1317.08 895.54 1303.21 922.21 1303.21 922.21 C 1303.21 922.21 1318.86 843.08 1351.93 864.42 C 1385.19 885.76 1391.77 921.68 1391.77 921.68 C 1391.77 921.68 1413.29 848.06 1443.16 875.98 C 1473.04 903.90 1468.06 921.68 1468.06 921.68 C 1468.06 921.68 1496.33 867.80 1509.49 900.52 C 1522.65 933.24 1552.70 866.02 1564.26 892.34 C 1564.26 892.34 1630.59 849.13 1620.63 909.23 C 1620.63 909.23 1690.16 921.86 1652.82 956.36 C 1652.82 956.36 1698.52 974.50 1683.58 995.66 C 1668.65 1017.00 1638.77 1003.84 1638.77 1003.84 C 1638.77 1003.84 1663.67 1053.10 1647.13 1054.69 C 1630.59 1056.30 1590.76 1064.48 1590.76 1036.73 C 1590.76 1036.73 1547.54 1100.75 1519.45 1072.83 C 1519.45 1072.83 1461.30 1102.35 1452.23 1072.83 C 1443.16 1043.31 1452.23 1036.73 1452.23 1036.73 C 1452.23 1036.73 1439.42 1072.83 1425.55 1071.23 C 1411.68 1069.63 1361.89 1066.25 1378.43 1033.53 C 1378.43 1033.53 1355.13 1069.63 1335.22 1066.25 C 1315.30 1063.05 1306.94 1030.15 1306.94 1030.15 C 1306.94 1030.15 1260.53 1087.59 1229.05 1031.76 C 1197.76 975.92 1229.23 982.50 1229.23 982.50 Z" fill="#dfeaef" fill-rule="nonzero" node-id="89" stroke="none" target-height="259.27502" target-width="507.521" target-x="1191" target-y="843.079"></path><path d="M 1463.61 1993.63 L 1463.61 1955.39 C 1478.73 1959.13 1503.98 1950.41 1527.10 1932.28 C 1556.62 1909.16 1571.73 1879.11 1560.70 1865.41 C 1549.68 1851.72 1516.78 1859.37 1487.26 1882.48 C 1467.88 1897.60 1454.72 1915.74 1450.98 1930.32 C 1447.25 1915.74 1434.09 1897.78 1414.71 1882.48 C 1385.19 1859.37 1352.11 1851.54 1341.26 1865.41 C 1330.24 1879.11 1345.35 1909.16 1374.87 1932.28 C 1397.99 1950.41 1423.24 1959.13 1438.36 1955.39 L 1438.36 1993.63 L 1316.72 1967.31 L 1311.39 1990.96 L 1450.98 2021.19 L 1590.58 1990.96 L 1585.25 1967.31 L 1463.61 1993.63 Z" fill="#356170" fill-rule="nonzero" node-id="91" stroke="none" target-height="169.646" target-width="279.19202" target-x="1311.388" target-y="1851.543"></path><path d="M 1133.74 1465.83 C 1133.72 1499.52 1161.34 1526.84 1195.42 1526.86 C 1229.50 1526.87 1257.13 1499.58 1257.15 1465.89 C 1257.15 1465.87 1257.15 1465.85 1257.15 1465.83 C 1257.17 1432.14 1229.55 1404.82 1195.47 1404.81 C 1161.39 1404.79 1133.76 1432.09 1133.74 1465.78 C 1133.74 1465.80 1133.74 1465.81 1133.74 1465.83 Z" fill="#356170" fill-rule="nonzero" node-id="93" stroke="none" target-height="122.079956" target-width="123.44592" target-x="1133.722" target-y="1404.792"></path><path d="M 1645.00 1465.83 C 1645.00 1499.52 1672.62 1526.83 1706.70 1526.83 C 1740.78 1526.83 1768.41 1499.52 1768.41 1465.83 L 1768.41 1465.83 C 1768.41 1432.15 1740.78 1404.84 1706.70 1404.84 C 1672.62 1404.84 1645.00 1432.15 1645.00 1465.83 Z" fill="#356170" fill-rule="nonzero" node-id="95" stroke="none" target-height="121.98999" target-width="123.41199" target-x="1644.996" target-y="1404.838"></path><path d="M 1855.01 1195.89 L 1869.95 1232.35 C 2000.12 1161.92 2158.92 1129.38 2158.92 1129.38 C 2027.86 1081.01 1855.01 1195.89 1855.01 1195.89 Z M 743.23 1129.56 C 743.23 1129.56 901.85 1162.10 1032.20 1232.52 L 1047.14 1196.07 C 1047.14 1195.89 874.29 1081.01 743.23 1129.56 Z" fill="#356170" fill-rule="nonzero" node-id="97" stroke="none" target-height="151.51001" target-width="1415.69" target-x="743.229" target-y="1081.013"></path></svg>